<svg version="1.2" baseProfile="tiny-ps" xmlns="http://www.w3.org/2000/svg" viewBox="0 0 367 419" width="367" height="419">
	<title>chat-svg</title>
	<defs>
		<clipPath clipPathUnits="userSpaceOnUse" id="cp1">
			<path d="M117.03 0.3L210.4 0.3L210.4 54.07L117.03 54.07L117.03 0.3Z" />
		</clipPath>
		<clipPath clipPathUnits="userSpaceOnUse" id="cp2">
			<path d="M4.99 209.65L214.22 209.65L214.22 419L4.99 419L4.99 209.65Z" />
		</clipPath>
	</defs>
	<style>
		tspan { white-space:pre }
		.shp0 { fill: #5eceff } 
		.shp1 { fill: #ff7081 } 
		.shp2 { fill: #7cabff } 
		.shp3 { fill: #7e2e84 } 
		.shp4 { fill: #fbc500 } 
		.shp5 { fill: #fbc580 } 
		.shp6 { fill: #241352 } 
		.shp7 { fill: #ffafa7 } 
		.shp8 { fill: #28405f } 
		.shp9 { fill: #e6e2eb } 
		.shp10 { opacity: 0.2;fill: #241352 } 
		.shp11 { opacity: 0.149;fill: #241352 } 
		.shp12 { fill: #6f35a5 } 
		.shp13 { fill: #ff957e } 
		.shp14 { fill: #53cbff } 
		.shp15 { fill: #144e6f } 
		.shp16 { fill: #fcf2fc } 
	</style>
	<g id="Page-1">
		<g id="01">
			<g id="Group-217">
				<path id="Fill-1" fill-rule="evenodd" class="shp0" d="M150 118C150 175.99 197.01 223 255 223C312.99 223 360 175.99 360 118C360 60.01 312.99 13 255 13C197.01 13 150 60.01 150 118Z" />
				<path id="Fill-3" fill-rule="evenodd" class="shp1" d="M264.56 17C267.87 16.06 271.4 15.65 274.77 16.35C278.14 17.04 281.33 18.92 283.04 21.79C284.98 25.06 284.8 29.05 284.56 32.81C283.96 42.21 283.36 51.62 282.76 61.02C282.59 63.63 282.44 66.34 283.5 68.75C284.56 71.16 287.22 73.15 289.91 72.62C291.27 72.35 292.42 71.49 293.72 70.99C295.01 70.49 296.74 70.47 297.55 71.56C298.03 72.2 298.05 73.06 297.96 73.85C297.56 77.32 295.31 80.56 292.1 82.26C293.99 81.39 296.35 83.2 296.38 85.2C296.41 87.2 294.73 88.92 292.78 89.67C290.84 90.41 288.69 90.38 286.59 90.34C288.32 90.37 289.65 92.13 289.48 93.77C289.31 95.4 287.95 96.77 286.37 97.41C284.78 98.05 282.99 98.08 281.28 97.92C277.63 97.6 274 96.48 271.12 94.31C266.1 90.52 264.07 84.05 264 77.95C263.93 71.84 265.52 65.83 266.42 59.78C268.49 45.75 266.79 31.49 265.1 17.41C265.51 17.29 265.92 17.17 266.33 17.05" />
				<path id="Fill-5" fill-rule="evenodd" class="shp2" d="M282.98 228.75C278.9 232.57 277.36 238.52 281.24 243.1C284.9 247.42 291.98 248.34 296.55 244.9C307.58 236.59 296.08 221.25 284.17 224.43C281.97 225.01 282.52 228.08 284.7 228.2C288.18 228.39 291.9 228.52 294.69 230.91C297.67 233.46 297.74 237.79 295.29 240.73C288.8 248.52 277.53 237.05 284.34 230.09C285.2 229.21 283.88 227.91 282.98 228.75Z" />
				<path id="Fill-7" fill-rule="evenodd" class="shp3" d="M164.34 188.03C162.95 186.45 161.43 185.23 160.73 183.12C159.35 178.9 161.99 176.8 165.09 175.23C168.25 173.63 170.8 171.77 171.73 167.92C173.2 161.9 168.45 154.49 162.39 156.27C160.42 156.85 161.01 159.55 162.35 160.39C164.23 161.56 166.74 162.23 167.06 165.02C167.48 168.75 164.07 169.81 161.69 171.16C159.11 172.61 157.17 174.83 156.35 177.88C154.94 183.15 157.86 190.29 163.55 189.99C164.36 189.95 164.92 188.7 164.34 188.03Z" />
				<path id="Fill-9" fill-rule="evenodd" class="shp4" d="M146.01 252.07C146.55 255.53 150.2 262.86 154.04 263.88C156.08 264.42 157.6 263.09 159.19 262.01C162.07 260.05 164.92 258.04 167.77 256.04C168.81 255.31 169.43 253.9 168.65 252.73C166.13 248.89 163.6 245.06 161.08 241.22C160.4 240.2 158.85 239.57 157.73 240.35C154.58 242.55 151.17 244.58 148.33 247.16C146.37 248.94 148.86 251.84 151.08 250.68C154.3 249 157.23 246.61 160.2 244.53C159.08 244.24 157.97 243.95 156.85 243.66C159.37 247.5 161.9 251.33 164.42 255.17C164.71 254.06 165.01 252.96 165.3 251.86C163.59 253.06 161.87 254.26 160.16 255.47C159.2 256.15 155.96 259.15 154.88 259.03C153.92 258.92 151.9 255.53 151.3 254.83C150.09 253.41 148.96 252.07 147.39 251.02C146.64 250.51 145.9 251.35 146.01 252.07Z" />
				<path id="Fill-11" fill-rule="evenodd" class="shp5" d="M314.01 96.07C314.55 99.53 318.2 106.86 322.04 107.88C324.08 108.41 325.6 107.09 327.19 106.01C330.07 104.05 332.92 102.04 335.77 100.03C336.81 99.3 337.43 97.9 336.65 96.72C334.13 92.89 331.6 89.05 329.08 85.22C328.41 84.2 326.85 83.57 325.73 84.35C322.58 86.55 319.17 88.58 316.33 91.16C314.38 92.94 316.86 95.84 319.08 94.68C322.3 93 325.23 90.61 328.2 88.53C327.08 88.24 325.97 87.95 324.85 87.66C327.37 91.5 329.9 95.33 332.42 99.17C332.71 98.06 333.01 96.96 333.3 95.86C331.59 97.06 329.87 98.26 328.16 99.47C327.2 100.15 323.96 103.15 322.88 103.03C321.92 102.92 319.9 99.53 319.3 98.84C318.09 97.41 316.96 96.07 315.39 95.02C314.64 94.51 313.9 95.35 314.01 96.07Z" />
				<path id="Fill-13" fill-rule="evenodd" class="shp1" d="M328.89 157.12C322.62 160.16 316.45 163.37 310.29 166.66C308.81 167.45 308.58 169.08 309.73 170.32C314.24 175.18 318.69 180.06 323.53 184.56C324.47 185.43 325.97 184.93 326.46 183.82C329.47 176.97 334.04 167.64 332.79 159.87C332.47 157.9 329.58 157 328.8 159.2C327.59 162.65 327.6 166.51 326.82 170.1C325.92 174.23 324.75 178.38 322.99 182.21L326.26 181.86C321.84 176.64 317.06 171.85 312.29 166.99C312.26 168.12 312.23 169.25 312.2 170.38C318.24 166.85 324.21 163.27 330.11 159.5C331.35 158.7 330.23 156.47 328.89 157.12Z" />
				<path id="Fill-15" fill-rule="evenodd" class="shp1" d="M210.2 246.57C214.69 241.2 219.23 235.22 222.74 229.05C223.85 227.1 221.12 224.87 219.72 226.65C215.37 232.18 211.5 238.68 208.16 244.96C207.46 246.29 209.22 247.74 210.2 246.57Z" />
				<path id="Fill-17" fill-rule="evenodd" class="shp6" d="M365.88 62.4L365.54 62.1C364.03 60.77 361.56 60.5 360.09 62.1C358.61 63.71 358.66 65.92 360.09 67.53C360.19 67.65 360.29 67.76 360.4 67.88C361.74 69.4 364.52 69.35 365.88 67.88C367.23 66.41 367.51 63.83 365.88 62.4Z" />
				<path id="Fill-19" fill-rule="evenodd" class="shp6" d="M183.88 212.4C183.77 212.3 183.65 212.2 183.54 212.1C182.03 210.77 179.56 210.51 178.09 212.1C176.61 213.71 176.66 215.92 178.09 217.54C178.19 217.65 178.29 217.76 178.39 217.88C179.74 219.4 182.52 219.35 183.88 217.88C185.23 216.41 185.51 213.84 183.88 212.4Z" />
				<path id="Fill-21" fill-rule="evenodd" class="shp7" d="M239 85.75L168.48 112.36L175.21 83.69L156.87 79C156.87 79 137.14 135.05 150.84 136.54C174.83 139.17 211.12 129.61 211.12 129.61L239 85.75Z" />
				<path id="Fill-23" fill-rule="evenodd" class="shp6" d="M214 146.94L214.15 201.6C231.94 223.73 293.84 195.12 293.84 195.12L294.56 172.76L296 119.51C294.57 98.3 275.12 87.89 275.12 87.89C267.07 83.83 254.81 81.53 243.75 82.08C232.22 82.66 229.37 88.25 224.61 98.91C220.77 107.52 214 115.6 214 146.94Z" />
				<path id="Fill-25" fill-rule="evenodd" class="shp7" d="M271.7 31.31L270.87 42.26C270.87 42.26 280.18 43.51 277.52 52.01C274.87 60.5 268.51 56.78 268.51 56.78C268.51 56.78 266.91 78.55 244.63 71.65C226.9 66.16 227.98 43.18 230.23 23.59C231.11 16 238.28 10.79 245.77 12.25L259.17 14.86C266.91 16.36 272.3 23.44 271.7 31.31Z" />
				<path id="Fill-27" fill-rule="evenodd" class="shp7" d="M272 51L265.9 83.4C264.52 90.7 257.29 95.36 250.03 93.64C243.3 92.04 238.99 85.5 240.2 78.73L243.52 60.16L272 51Z" />
				<path id="Fill-29" fill-rule="evenodd" class="shp6" d="M245.98 52.08C246.01 52.07 246.07 52.56 245.62 52.92C245.15 53.25 244.4 52.55 244.21 51.41C243.96 50.31 243.99 49 244.02 47.66C244.07 46.2 244.12 44.77 244.17 43.26C244.42 37.02 244.81 31.97 245.04 32C245.27 32.02 245.26 37.1 245.01 43.34C244.93 44.84 244.87 46.28 244.8 47.74C244.72 49.09 244.64 50.26 244.78 51.14C244.87 52.04 245.27 52.46 245.53 52.42C245.8 52.37 245.92 52.02 245.98 52.08Z" />
				<path id="Fill-31" fill-rule="evenodd" class="shp6" d="M240.01 69.02C240.19 68.7 244.56 71.72 250.94 71.82C257.32 71.96 261.83 69.11 261.99 69.44C262.09 69.55 261.13 70.42 259.19 71.32C257.27 72.22 254.29 73.06 250.91 73C247.53 72.94 244.6 71.98 242.72 71.01C240.82 70.04 239.91 69.13 240.01 69.02Z" />
				<path id="Fill-33" fill-rule="evenodd" class="shp6" d="M244.03 56.74C244.17 56.62 244.66 57.04 245.57 57.41C246.45 57.78 247.83 58.05 249.18 57.63C250.52 57.21 251.48 56.21 251.98 55.41C252.49 54.61 252.64 53.98 252.83 54C252.97 54 253.15 54.7 252.77 55.78C252.4 56.82 251.34 58.21 249.56 58.77C247.77 59.32 246.06 58.79 245.14 58.15C244.18 57.5 243.91 56.82 244.03 56.74Z" />
				<path id="Fill-35" fill-rule="evenodd" class="shp6" d="M272.03 51.78C272.02 51.62 272.38 51.52 272.77 51.19C272.96 51.02 273.12 50.79 273.17 50.48C273.23 50.16 273.15 49.92 273 49.86C272.85 49.78 272.73 49.85 272.72 49.88L272 49.4C272.56 47.91 273.09 46.91 273.26 47.01C273.44 47.11 273.21 48.29 272.74 49.82L272.02 49.34C272.3 48.74 272.88 48.61 273.3 48.83C273.61 48.96 273.88 49.37 273.95 49.74C274.04 50.13 274 50.5 273.91 50.8C273.74 51.41 273.33 51.77 273.03 51.89C272.39 52.14 272.03 51.91 272.03 51.78Z" />
				<path id="Fill-37" fill-rule="evenodd" class="shp6" d="M257.01 31.78C256.89 31.52 257.93 30.98 259.25 31.3C260.58 31.62 261.19 32.57 260.95 32.74C260.72 32.95 259.95 32.53 258.97 32.31C257.99 32.06 257.1 32.07 257.01 31.78Z" />
				<path id="Fill-39" fill-rule="evenodd" class="shp6" d="M237.01 28.17C236.86 27.92 237.99 27.26 239.6 27.38C241.2 27.49 242.18 28.31 241.97 28.54C241.78 28.79 240.75 28.5 239.49 28.42C238.23 28.31 237.15 28.45 237.01 28.17Z" />
				<path id="Fill-41" fill-rule="evenodd" class="shp1" d="M270.28 42.41C264.19 36.3 262.4 26.11 260.75 17.52C255.11 21.75 247.36 22.79 240.86 20.19C238.82 22.66 236.42 24.82 233.78 26.57C233.02 27.07 232.13 27.55 231.27 27.28C230.25 26.96 229.8 25.76 229.55 24.69C228.78 21.26 228.75 17.59 229.91 14.29C231.07 10.98 233.5 8.07 236.68 6.8C240.09 5.44 243.92 6.03 247.45 6.97C252.78 8.4 257.91 10.58 262.65 13.45C267.31 16.26 271.78 19.98 273.76 25.15C275.73 30.33 275.73 40.39 270.96 43" />
				<path id="Fill-43" fill-rule="evenodd" class="shp6" d="M235.44 86.22C241.64 83.87 194 100.8 194 100.8L198.83 132L216.95 126.31L235.44 86.22Z" />
				<path id="Fill-45" fill-rule="evenodd" class="shp7" d="M172.77 85C172.77 85 184.91 67.91 182.74 67.92C180.58 67.93 179.45 71.14 175.25 73.35C175.25 73.35 181.95 51.98 179.88 52.42C177.8 52.87 172.85 66.59 172.53 66.57C172.2 66.56 176.8 51.19 175.07 51C173.35 50.81 169.13 65.11 169.13 65.11C169.13 65.11 172.02 51.52 170.2 51.21C168.37 50.91 165.68 63.43 165.68 63.43C165.68 63.43 167.83 52.92 166.17 52.66C165.16 52.51 156 78.58 156 78.58C156.24 78.58 172.77 85 172.77 85Z" />
				<path id="Fill-47" fill-rule="evenodd" class="shp6" d="M267.53 145C267.44 145.01 267.25 144.14 266.98 142.56C266.72 140.98 266.38 138.7 265.99 135.86C265.21 130.2 264.22 122.38 263.22 113.7C262.99 111.52 262.87 109.33 263.23 107.21C263.56 105.08 264.5 103.09 265.81 101.55C268.47 98.43 272.12 96.94 275.14 96.38C278.19 95.82 280.72 95.99 282.41 96.19C284.11 96.4 285.01 96.66 285 96.73C284.98 96.83 284.05 96.73 282.36 96.68C280.69 96.64 278.23 96.6 275.34 97.25C272.5 97.89 269.15 99.39 266.79 102.26C265.62 103.69 264.81 105.44 264.52 107.39C264.21 109.34 264.32 111.43 264.55 113.58C265.55 122.22 266.39 130.08 266.93 135.77C267.2 138.61 267.4 140.92 267.5 142.51C267.61 144.11 267.62 144.99 267.53 145Z" />
				<path id="Fill-49" fill-rule="evenodd" class="shp6" d="M265 142.1C265.04 141.76 273.35 142.34 283.57 143.39C293.78 144.44 302.04 145.57 302 145.91C301.96 146.24 293.65 145.66 283.43 144.61C273.22 143.56 264.96 142.43 265 142.1Z" />
				<g id="Group-53">
					<g id="Clip-52">
					</g>
					<g id="Clip-Path: Fill-51" clip-path="url(#cp1)">
						<path id="Fill-51" class="shp8" d="M210.4 3.02L210.4 40.04L185.96 40.04L185.18 54.07L170.82 39.22L117.03 39.22L121.76 0.29L210.4 3.02Z" />
					</g>
				</g>
				<path id="Fill-54" fill-rule="evenodd" class="shp9" d="M203.8 13.83C180.03 13.44 156.11 13.3 132.34 13.71C131.89 13.72 131.89 14.28 132.34 14.29C156.11 14.7 180.03 14.56 203.8 14.17C204.07 14.17 204.07 13.84 203.8 13.83Z" />
				<path id="Fill-56" fill-rule="evenodd" class="shp9" d="M203.8 21.83C180.03 21.44 156.11 21.3 132.34 21.71C131.89 21.72 131.89 22.28 132.34 22.29C156.11 22.7 180.03 22.56 203.8 22.17C204.07 22.16 204.07 21.84 203.8 21.83Z" />
				<path id="Fill-58" fill-rule="evenodd" class="shp9" d="M200.8 29.83C186.39 29.46 171.75 29.34 157.33 29.71C156.89 29.73 156.89 30.28 157.33 30.29C171.75 30.66 186.39 30.54 200.8 30.17C201.06 30.16 201.07 29.84 200.8 29.83Z" />
				<path id="Fill-60" fill-rule="evenodd" class="shp6" d="M237.73 37.81C237.47 37.94 237.07 37.67 236.7 37.32C236.33 36.97 236.03 36.59 236.14 36.32C236.25 36.06 236.89 36.07 237.41 36.56C237.93 37.06 237.99 37.7 237.73 37.81Z" />
				<path id="Fill-62" fill-rule="evenodd" class="shp6" d="M256.83 38.98C256.57 39.08 256.1 38.7 255.65 38.21C255.21 37.71 254.89 37.24 255.08 37.06C255.26 36.88 255.96 37.11 256.49 37.69C257.02 38.27 257.09 38.89 256.83 38.98Z" />
				<path id="Fill-64" fill-rule="evenodd" class="shp10" d="M252.82 55.78C253.28 57.67 252.84 59.53 251.84 59.92C250.83 60.32 249.64 59.11 249.18 57.22C248.72 55.33 249.16 53.47 250.16 53.08C251.17 52.68 252.36 53.89 252.82 55.78Z" />
				<path id="Fill-66" fill-rule="evenodd" class="shp11" d="M264 44.46C264.01 46.39 261.78 47.98 259.02 48C256.26 48.02 254.01 46.47 254 44.54C253.99 42.61 256.22 41.02 258.98 41C261.74 40.98 263.99 42.53 264 44.46Z" />
				<path id="Fill-68" fill-rule="evenodd" class="shp11" d="M242 45.46C242.01 47.39 239.78 48.98 237.02 49C234.26 49.02 232.01 47.47 232 45.54C231.99 43.61 234.22 42.02 236.98 42C239.74 41.98 241.99 43.53 242 45.46Z" />
				<path id="Fill-70" fill-rule="evenodd" class="shp12" d="M272.25 27.98C272.15 27.84 272.54 27.28 272.18 26.25C271.89 25.26 270.99 23.83 270.28 22.2C268.77 18.96 267.77 16.18 268.04 16.01C268.32 15.83 269.77 18.34 271.3 21.62C272.01 23.28 272.78 24.67 272.97 26.05C273.06 26.72 272.94 27.33 272.72 27.66C272.5 27.98 272.3 28.04 272.25 27.98Z" />
				<path id="Fill-72" class="shp2" d="M219.18 133.79L215 188.38L273 196L269.08 133L219.18 133.79Z" />
				<path id="Fill-74" class="shp2" d="M222 96.4L222 139L229 136.55L229 88L222 89.99" />
				<path id="Fill-76" fill-rule="evenodd" class="shp2" d="M275.71 90C275.71 90 249.74 93.31 257.42 135.31L263.93 136C263.93 136 256.59 96.54 281 93.73L275.71 90Z" />
				<path id="Fill-78" fill-rule="evenodd" class="shp7" d="M268.65 138C268.65 138 277.47 190.13 265.03 188.85C224.13 184.63 199.78 184.06 199.78 184.06L193 198.18C192.84 200.59 270.46 222.88 282.93 215.51C291.73 210.31 305.76 196.29 299.39 154.4L297.89 140.36L268.65 138Z" />
				<path id="Fill-80" fill-rule="evenodd" class="shp6" d="M290.45 103.9C290.45 103.9 299.89 113.12 302 148L265.48 143.89C265.48 143.89 259.4 84.48 290.45 103.9Z" />
				<path id="Fill-82" fill-rule="evenodd" class="shp7" d="M204.35 184.63C204.35 184.63 184.23 178.35 184.92 180.42C185.61 182.48 189.03 182.56 192.46 185.89C192.46 185.89 169.95 186.13 171.04 187.98C172.12 189.82 186.77 190.28 186.85 190.6C186.94 190.91 170.83 191.3 171.2 193.01C171.56 194.72 186.53 194.3 186.53 194.3C186.53 194.3 172.65 195.77 172.93 197.6C173.22 199.44 186.02 198.12 186.02 198.12C186.02 198.12 175.31 199.34 175.58 201C175.76 202.02 206.94 202.25 207 202.99C207.03 203.38 204.35 184.63 204.35 184.63Z" />
				<path id="Fill-84" fill-rule="evenodd" class="shp6" d="M229.29 132C229.45 131.98 229.83 132.93 229.98 134.66C230.04 135.51 229.99 136.64 229.44 137.76C228.93 138.82 227.81 140 226.25 140C224.72 139.98 223.59 138.98 222.95 137.98C222.28 136.93 222.11 135.86 222.03 135C221.92 133.28 222.14 132.28 222.3 132.27C222.5 132.25 222.61 133.31 222.93 134.85C223.11 135.6 223.38 136.51 223.92 137.25C224.46 137.99 225.34 138.64 226.24 138.63C227.15 138.65 227.94 137.95 228.4 137.14C228.86 136.34 229.01 135.43 229.07 134.65C229.16 133.08 229.09 132.02 229.29 132Z" />
				<path id="Fill-86" fill-rule="evenodd" class="shp6" d="M226.53 134.38C226.59 134.48 226.52 134.68 226.61 134.9C226.72 135.16 226.84 135.22 227.05 135.09C227.26 134.94 227.24 134.8 227.06 134.59C226.89 134.42 226.69 134.42 226.62 134.32C226.54 134.24 226.78 133.9 227.3 134.03C227.53 134.1 227.83 134.28 227.96 134.68C228.09 135.09 227.87 135.59 227.52 135.81C227.19 136.05 226.66 136.08 226.34 135.79C226.02 135.51 225.98 135.16 226.01 134.91C226.09 134.37 226.49 134.28 226.53 134.38Z" />
				<path id="Fill-88" fill-rule="evenodd" class="shp6" d="M263.47 133.01C263.61 132.94 264.15 133.47 263.96 134.48C263.81 135.42 262.74 136.87 260.65 137C258.55 137.02 257.33 135.65 257.09 134.73C256.8 133.73 257.28 133.16 257.42 133.22C257.63 133.26 257.57 133.79 258 134.45C258.38 135.09 259.4 135.9 260.59 135.86C261.79 135.81 262.72 134.94 263.03 134.27C263.38 133.59 263.27 133.06 263.47 133.01Z" />
				<path id="Fill-90" fill-rule="evenodd" class="shp6" d="M261.14 129.73C261.07 129.59 261.28 129.01 261.85 129C262.12 129 262.48 129.16 262.76 129.75C263.06 130.31 263.08 131.4 262.81 132.07C262.57 132.77 261.98 133.26 261.5 132.85C261 132.38 260.97 131.58 261.01 131.1C261.06 130.58 261.26 130.2 261.43 130.11C261.6 130.02 261.69 130.14 261.7 130.23C261.69 130.45 261.54 130.68 261.63 131.14C261.75 131.68 261.85 131.7 262.07 131.25C262.27 130.75 262.08 130.32 261.76 130.06C261.46 129.84 261.2 129.92 261.14 129.73Z" />
				<path id="Fill-92" fill-rule="evenodd" class="shp6" d="M258.78 157C258.49 156.92 258.45 155.8 258.48 154.48C258.52 153.16 258.62 152.06 258.91 152C259.19 151.94 259.57 153.07 259.52 154.53C259.49 155.98 259.06 157.07 258.78 157Z" />
				<path id="Fill-94" fill-rule="evenodd" class="shp6" d="M254.04 165.94C253.88 165.69 254.24 164.76 254.73 163.72C255.23 162.68 255.71 161.86 255.91 162.02C256.12 162.17 255.96 163.32 255.41 164.46C254.87 165.6 254.2 166.19 254.04 165.94Z" />
				<path id="Fill-96" fill-rule="evenodd" class="shp6" d="M246 170.55C245.95 170.26 247.03 169.91 248.34 169.58C249.66 169.26 250.79 169.06 250.98 169.31C251.16 169.56 250.21 170.22 248.76 170.57C247.32 170.93 246.05 170.83 246 170.55Z" />
				<path id="Fill-98" fill-rule="evenodd" class="shp6" d="M235.02 169.38C235.18 169.12 236.32 169.28 237.64 169.57C238.96 169.85 240.04 170.17 240 170.47C239.97 170.75 238.72 170.88 237.27 170.57C235.83 170.26 234.85 169.64 235.02 169.38Z" />
				<path id="Fill-100" fill-rule="evenodd" class="shp6" d="M228.07 163.02C228.27 162.85 228.74 163.66 229.24 164.69C229.74 165.73 230.12 166.66 229.97 166.93C229.82 167.2 229.16 166.64 228.61 165.5C228.06 164.36 227.88 163.19 228.07 163.02Z" />
				<path id="Fill-102" fill-rule="evenodd" class="shp6" d="M226.99 153C227.28 153.04 227.42 154.14 227.51 155.46C227.58 156.78 227.57 157.91 227.29 157.99C227.01 158.09 226.55 157.01 226.47 155.56C226.38 154.11 226.71 152.96 226.99 153Z" />
				<path id="Fill-104" fill-rule="evenodd" class="shp6" d="M234 152.07C233.99 152.36 232.86 152.56 231.48 152.52C230.1 152.48 228.99 152.21 229 151.93C229.02 151.64 230.14 151.44 231.52 151.48C232.9 151.52 234.01 151.78 234 152.07Z" />
				<path id="Fill-106" fill-rule="evenodd" class="shp6" d="M244 152.07C243.99 152.36 242.86 152.56 241.48 152.52C240.1 152.48 238.99 152.22 239 151.93C239.01 151.64 240.14 151.44 241.52 151.48C242.9 151.52 244.01 151.78 244 152.07Z" />
				<path id="Fill-108" fill-rule="evenodd" class="shp6" d="M255 152.07C254.99 152.36 253.86 152.56 252.48 152.52C251.1 152.48 249.99 152.21 250 151.93C250.01 151.64 251.14 151.44 252.52 151.48C253.9 151.52 255.01 151.78 255 152.07Z" />
				<path id="Fill-110" fill-rule="evenodd" class="shp13" d="M259.29 263.06C260.64 256.24 261.73 248.9 262 241.93C262.08 239.75 258.95 239.21 258.59 241.4C257.45 248.31 257.05 255.69 257 262.7C256.99 264.17 259 264.54 259.29 263.06Z" />
				<path id="Fill-112" fill-rule="evenodd" class="shp6" d="M293.88 285.4C293.77 285.3 293.65 285.2 293.54 285.1C292.03 283.77 289.56 283.51 288.09 285.1C286.61 286.71 286.66 288.92 288.09 290.53L288.4 290.88C289.75 292.4 292.53 292.35 293.88 290.88C295.23 289.41 295.51 286.84 293.88 285.4Z" />
				<g id="Group-116">
					<g id="Clip-115">
					</g>
					<g id="Clip-Path: Fill-114" clip-path="url(#cp2)">
						<path id="Fill-114" fill-rule="evenodd" class="shp14" d="M214.22 314.32C214.22 372.13 167.38 419 109.61 419C51.83 419 4.99 372.13 4.99 314.32C4.99 256.51 51.83 209.65 109.61 209.65C167.38 209.65 214.22 256.51 214.22 314.32Z" />
					</g>
				</g>
				<path id="Fill-117" fill-rule="evenodd" class="shp7" d="M125 278.75L195.52 305.36L188.79 276.69L207.13 272C207.13 272 226.86 328.04 213.16 329.54C189.17 332.17 152.88 322.61 152.88 322.61L125 278.75Z" />
				<path id="Fill-119" fill-rule="evenodd" class="shp15" d="M149 341.94L148.85 396.6C131.06 418.73 69.16 390.12 69.16 390.12L68.44 367.76L67 314.51C68.43 293.3 87.88 282.89 87.88 282.89C95.93 278.83 108.19 276.53 119.25 277.08C130.78 277.66 133.63 283.25 138.39 293.91C142.23 302.52 149 310.6 149 341.94Z" />
				<path id="Fill-121" fill-rule="evenodd" class="shp7" d="M94.35 331C94.35 331 85.53 383.13 97.97 381.85C138.87 377.63 163.22 377.06 163.22 377.06L170 391.19C170.16 393.59 92.54 415.88 80.07 408.51C71.27 403.31 57.24 389.29 63.61 347.4L65.11 333.36L94.35 331Z" />
				<path id="Fill-123" fill-rule="evenodd" class="shp15" d="M71.55 297.9C71.55 297.9 62.11 307.12 60 342L96.52 337.89C96.52 337.89 102.6 278.48 71.55 297.9Z" />
				<path id="Fill-125" fill-rule="evenodd" class="shp7" d="M89.3 225.31L90.13 236.26C90.13 236.26 80.82 237.51 83.48 246.01C86.13 254.5 92.49 250.78 92.49 250.78C92.49 250.78 94.09 272.55 116.37 265.65C134.1 260.15 133.02 237.18 130.77 217.59C129.89 210 122.72 204.79 115.22 206.25L101.83 208.86C94.09 210.36 88.7 217.44 89.3 225.31Z" />
				<path id="Fill-127" fill-rule="evenodd" class="shp7" d="M91 244L97.11 276.4C98.48 283.7 105.71 288.36 112.97 286.64C119.7 285.04 124.01 278.51 122.8 271.73L119.48 253.16L91 244Z" />
				<path id="Fill-129" fill-rule="evenodd" class="shp6" d="M116.02 245.08C116.08 245.02 116.2 245.37 116.47 245.42C116.73 245.46 117.13 245.04 117.22 244.14C117.36 243.26 117.28 242.09 117.2 240.74C117.13 239.28 117.07 237.85 116.99 236.34C116.74 230.1 116.73 225.02 116.96 225C117.19 224.98 117.58 230.02 117.83 236.26C117.88 237.77 117.93 239.21 117.98 240.66C118.01 241.99 118.04 243.31 117.79 244.41C117.6 245.55 116.85 246.25 116.38 245.92C115.93 245.56 115.99 245.07 116.02 245.08Z" />
				<path id="Fill-131" fill-rule="evenodd" class="shp6" d="M123.99 264.02C124.1 264.13 123.18 265.03 121.28 266.01C119.4 266.98 116.47 267.93 113.09 268C109.71 268.06 106.73 267.22 104.81 266.32C102.87 265.42 101.91 264.55 102.01 264.44C102.18 264.11 106.68 266.96 113.06 266.82C119.44 266.72 123.81 263.7 123.99 264.02Z" />
				<path id="Fill-133" fill-rule="evenodd" class="shp6" d="M117.97 248.74C118.09 248.82 117.82 249.5 116.86 250.15C115.93 250.79 114.23 251.32 112.44 250.77C110.66 250.21 109.6 248.82 109.23 247.78C108.85 246.7 109.02 246 109.17 246C109.36 245.98 109.51 246.61 110.02 247.42C110.52 248.21 111.48 249.21 112.82 249.63C114.17 250.05 115.55 249.78 116.43 249.41C117.33 249.04 117.83 248.62 117.97 248.74Z" />
				<path id="Fill-135" fill-rule="evenodd" class="shp6" d="M88.97 246.78C88.98 246.91 88.61 247.14 87.97 246.89C87.67 246.77 87.26 246.41 87.09 245.8C87 245.5 86.96 245.13 87.05 244.74C87.12 244.37 87.4 243.96 87.7 243.83C88.12 243.61 88.71 243.74 88.98 244.34L88.26 244.82C87.79 243.29 87.56 242.11 87.74 242.01C87.91 241.91 88.44 242.92 89 244.4L88.28 244.88C88.27 244.85 88.15 244.78 88 244.85C87.85 244.92 87.77 245.16 87.83 245.48C87.88 245.79 88.04 246.02 88.23 246.19C88.62 246.52 88.98 246.62 88.97 246.78Z" />
				<path id="Fill-137" fill-rule="evenodd" class="shp6" d="M106.99 224.78C106.9 225.07 106.01 225.06 105.03 225.31C104.05 225.54 103.28 225.95 103.05 225.74C102.81 225.57 103.42 224.62 104.75 224.3C106.07 223.98 107.11 224.52 106.99 224.78Z" />
				<path id="Fill-139" fill-rule="evenodd" class="shp6" d="M125.99 221.17C125.85 221.45 124.77 221.31 123.51 221.42C122.25 221.5 121.22 221.79 121.03 221.54C120.82 221.31 121.8 220.49 123.41 220.38C125.01 220.26 126.14 220.92 125.99 221.17Z" />
				<path id="Fill-141" fill-rule="evenodd" class="shp6" d="M92.72 235.41C98.81 229.3 100.6 219.11 102.25 210.52C107.89 214.75 115.64 215.79 122.14 213.19C124.18 215.66 126.57 217.81 129.22 219.56C129.97 220.06 130.87 220.55 131.73 220.28C132.75 219.96 133.2 218.76 133.44 217.69C134.22 214.26 134.25 210.59 133.09 207.28C131.93 203.97 129.5 201.07 126.31 199.8C122.91 198.44 119.08 199.03 115.55 199.97C110.22 201.4 105.09 203.58 100.35 206.45C95.69 209.26 91.22 212.98 89.24 218.15C87.27 223.33 87.28 233.38 92.04 236" />
				<path id="Fill-143" fill-rule="evenodd" class="shp15" d="M127.56 279.22C121.36 276.87 169 293.8 169 293.8L164.17 325L146.05 319.31L127.56 279.22Z" />
				<path id="Fill-145" fill-rule="evenodd" class="shp7" d="M158.64 376.63C158.64 376.63 178.77 370.35 178.08 372.42C177.39 374.48 173.97 374.56 170.54 377.89C170.54 377.89 193.04 378.13 191.96 379.98C190.88 381.82 176.23 382.28 176.14 382.6C176.06 382.91 192.17 383.31 191.8 385.01C191.44 386.72 176.47 386.3 176.47 386.3C176.47 386.3 190.35 387.77 190.06 389.61C189.78 391.45 176.99 390.12 176.99 390.12C176.99 390.12 187.69 391.34 187.41 393C187.24 394.02 156.06 394.25 156 394.99C155.97 395.39 158.64 376.63 158.64 376.63Z" />
				<path id="Fill-147" fill-rule="evenodd" class="shp7" d="M189.23 279C189.23 279 177.09 261.91 179.26 261.92C181.42 261.93 182.55 265.14 186.75 267.35C186.75 267.35 180.05 245.98 182.12 246.42C184.2 246.87 189.15 260.59 189.48 260.58C189.8 260.56 185.2 245.19 186.93 245C188.65 244.81 192.87 259.11 192.87 259.11C192.87 259.11 189.98 245.52 191.8 245.21C193.63 244.91 196.32 257.43 196.32 257.43C196.32 257.43 194.17 246.92 195.83 246.66C196.84 246.51 206 272.58 206 272.58C205.76 272.58 189.23 279 189.23 279Z" />
				<path id="Fill-149" fill-rule="evenodd" class="shp16" d="M78.4 325C78.53 324.99 78.98 325.72 79 327.18C79 327.89 78.69 328.91 77.72 329.55C77.26 329.87 76.57 330.1 75.86 329.96C75.16 329.82 74.63 329.37 74.24 328.98C73.47 328.15 72.97 327.65 72.18 327.56C71.42 327.45 70.74 327.69 70.3 328.06C69.38 328.85 69.41 329.75 69.22 329.74C69.09 329.81 68.62 328.77 69.65 327.5C70.16 326.89 71.18 326.39 72.31 326.49C72.87 326.54 73.47 326.72 73.97 327.08C74.46 327.43 74.81 327.85 75.16 328.19C76.4 329.77 78.03 328.23 78.12 327.09C78.32 325.89 78.2 325.01 78.4 325Z" />
				<path id="Fill-151" fill-rule="evenodd" class="shp16" d="M89.01 316.11C88.93 316.01 89.37 315.26 90.67 314.45C91.31 314.07 92.39 313.78 93.46 314.23C93.99 314.43 94.54 314.88 94.78 315.54C95.01 316.19 94.88 316.87 94.73 317.39C94.37 318.48 94.18 319.16 94.5 319.87C94.79 320.55 95.36 320.99 95.92 321.15C97.09 321.48 97.9 320.97 97.98 321.13C98.11 321.19 97.42 322.15 95.74 321.98C94.93 321.89 93.96 321.32 93.47 320.33C93.23 319.85 93.09 319.25 93.16 318.65C93.22 318.05 93.41 317.54 93.55 317.07C94.33 315.2 92.11 314.68 91.04 315.22C89.86 315.71 89.12 316.28 89.01 316.11Z" />
				<path id="Fill-153" fill-rule="evenodd" class="shp16" d="M89.01 293.11C88.93 293.01 89.37 292.26 90.67 291.45C91.31 291.07 92.39 290.78 93.46 291.23C93.99 291.43 94.54 291.88 94.78 292.54C95.01 293.19 94.88 293.87 94.73 294.4C94.37 295.48 94.18 296.16 94.5 296.86C94.79 297.55 95.35 297.98 95.92 298.15C97.09 298.48 97.9 297.97 97.98 298.13C98.11 298.19 97.42 299.15 95.74 298.98C94.93 298.89 93.96 298.32 93.47 297.33C93.23 296.85 93.09 296.25 93.15 295.65C93.21 295.05 93.41 294.54 93.55 294.07C94.33 292.2 92.11 291.68 91.04 292.22C89.86 292.71 89.12 293.28 89.01 293.11Z" />
				<path id="Fill-155" fill-rule="evenodd" class="shp16" d="M110.5 322.99C110.41 323.07 109.58 322.72 108.63 321.55C108.18 320.97 107.77 319.97 108.14 318.91C108.31 318.39 108.72 317.82 109.39 317.55C110.05 317.26 110.77 317.33 111.32 317.43C112.49 317.68 113.21 317.81 113.91 317.44C114.6 317.11 115 316.53 115.12 315.98C115.36 314.83 114.76 314.11 114.92 314.02C114.97 313.89 116.03 314.47 116 316.08C115.98 316.86 115.47 317.83 114.49 318.38C114.01 318.66 113.4 318.84 112.77 318.83C112.14 318.82 111.59 318.68 111.09 318.59C109.07 318 108.74 320.16 109.4 321.13C110 322.21 110.66 322.86 110.5 322.99Z" />
				<path id="Fill-157" fill-rule="evenodd" class="shp16" d="M125.99 346.96C126.07 347.07 125.55 347.86 124.13 348.63C123.43 348.99 122.28 349.23 121.19 348.66C120.66 348.39 120.12 347.87 119.92 347.13C119.73 346.4 119.92 345.67 120.12 345.12C120.58 343.96 120.83 343.24 120.55 342.45C120.3 341.69 119.75 341.17 119.17 340.95C117.97 340.5 117.09 340.99 117.01 340.81C116.88 340.73 117.68 339.75 119.43 340.06C120.26 340.22 121.23 340.92 121.66 342.03C121.88 342.58 121.98 343.23 121.86 343.88C121.75 344.52 121.5 345.07 121.33 345.56C120.36 347.53 122.64 348.27 123.8 347.77C125.07 347.33 125.88 346.77 125.99 346.96Z" />
				<path id="Fill-159" fill-rule="evenodd" class="shp16" d="M145.99 308.96C146.07 309.07 145.55 309.86 144.13 310.63C143.43 310.99 142.28 311.23 141.19 310.66C140.66 310.39 140.11 309.87 139.92 309.13C139.73 308.4 139.92 307.67 140.12 307.12C140.58 305.96 140.83 305.24 140.55 304.45C140.3 303.69 139.75 303.17 139.17 302.95C137.97 302.5 137.09 302.99 137.01 302.81C136.88 302.73 137.69 301.75 139.43 302.06C140.26 302.22 141.23 302.92 141.66 304.03C141.88 304.58 141.98 305.23 141.86 305.88C141.75 306.52 141.5 307.07 141.33 307.56C140.36 309.53 142.64 310.27 143.8 309.77C145.07 309.33 145.88 308.77 145.99 308.96Z" />
				<path id="Fill-161" fill-rule="evenodd" class="shp16" d="M157.52 303.02C157.61 302.92 158.58 303.13 159.87 304.16C160.48 304.67 161.15 305.63 160.97 306.77C160.9 307.33 160.58 307.98 159.91 308.39C159.25 308.79 158.46 308.85 157.83 308.84C156.51 308.79 155.69 308.8 155.01 309.3C154.34 309.76 154.02 310.42 154.01 311C154 312.22 154.81 312.85 154.66 312.97C154.63 313.12 153.36 312.71 153.03 311.05C152.89 310.26 153.23 309.18 154.18 308.44C154.65 308.07 155.26 307.78 155.96 307.68C156.64 307.58 157.27 307.63 157.83 307.63C160.16 307.87 160.05 305.61 159.13 304.73C158.23 303.73 157.37 303.18 157.52 303.02Z" />
				<path id="Fill-163" fill-rule="evenodd" class="shp16" d="M105.99 366.96C106.07 367.07 105.55 367.86 104.13 368.63C103.43 368.99 102.28 369.23 101.19 368.66C100.66 368.39 100.12 367.86 99.92 367.13C99.73 366.4 99.91 365.67 100.12 365.12C100.58 363.96 100.83 363.24 100.55 362.45C100.3 361.69 99.75 361.17 99.17 360.95C97.97 360.5 97.09 360.99 97.01 360.81C96.88 360.73 97.68 359.75 99.43 360.06C100.26 360.22 101.23 360.92 101.66 362.03C101.88 362.58 101.97 363.23 101.86 363.88C101.75 364.52 101.5 365.07 101.33 365.56C100.36 367.53 102.64 368.27 103.8 367.77C105.07 367.33 105.88 366.77 105.99 366.96Z" />
				<path id="Fill-165" fill-rule="evenodd" class="shp16" d="M133.99 328.99C133.88 329.07 133.15 328.6 132.4 327.25C132.04 326.58 131.78 325.47 132.26 324.39C132.48 323.87 132.93 323.31 133.59 323.1C134.24 322.88 134.91 323.03 135.42 323.21C136.48 323.61 137.15 323.83 137.85 323.52C138.53 323.25 138.98 322.69 139.15 322.12C139.52 320.93 139.04 320.1 139.2 320.02C139.27 319.88 140.18 320.62 139.97 322.33C139.86 323.15 139.26 324.12 138.28 324.58C137.79 324.82 137.2 324.94 136.6 324.85C136.02 324.77 135.52 324.55 135.06 324.4C133.24 323.54 132.67 325.78 133.17 326.89C133.61 328.11 134.15 328.88 133.99 328.99Z" />
				<path id="Fill-167" fill-rule="evenodd" class="shp16" d="M139.98 348.99C139.88 349.07 139.15 348.6 138.4 347.25C138.04 346.58 137.78 345.47 138.26 344.39C138.48 343.87 138.93 343.31 139.59 343.1C140.24 342.88 140.91 343.03 141.42 343.21C142.48 343.61 143.15 343.83 143.84 343.52C144.53 343.25 144.97 342.69 145.15 342.12C145.52 340.93 145.04 340.1 145.2 340.02C145.26 339.88 146.18 340.62 145.97 342.33C145.86 343.15 145.26 344.12 144.27 344.58C143.79 344.82 143.2 344.94 142.6 344.85C142.02 344.77 141.52 344.55 141.06 344.4C139.24 343.54 138.67 345.78 139.17 346.89C139.61 348.11 140.15 348.88 139.98 348.99Z" />
				<path id="Fill-169" fill-rule="evenodd" class="shp16" d="M100.21 342C100.09 341.98 99.84 341.09 100.15 339.5C100.31 338.74 100.84 337.7 101.88 337.22C102.39 336.98 103.08 336.89 103.72 337.21C104.35 337.51 104.74 338.12 105.01 338.62C105.55 339.71 105.91 340.36 106.63 340.64C107.31 340.93 108.01 340.83 108.5 340.52C109.54 339.88 109.72 338.89 109.9 338.95C110.03 338.9 110.24 340.13 108.98 341.28C108.37 341.83 107.3 342.13 106.26 341.76C105.75 341.59 105.23 341.25 104.84 340.75C104.46 340.26 104.22 339.73 103.97 339.28C103.17 337.29 101.29 338.58 100.95 339.8C100.5 341.05 100.41 342.03 100.21 342Z" />
				<path id="Fill-171" fill-rule="evenodd" class="shp16" d="M136.21 366C136.09 365.98 135.84 365.09 136.15 363.5C136.31 362.74 136.84 361.7 137.88 361.22C138.39 360.98 139.08 360.89 139.72 361.21C140.35 361.51 140.74 362.12 141.01 362.62C141.55 363.71 141.91 364.36 142.63 364.64C143.32 364.93 144.01 364.83 144.51 364.52C145.55 363.88 145.72 362.89 145.9 362.95C146.03 362.9 146.24 364.13 144.98 365.28C144.37 365.83 143.3 366.13 142.27 365.76C141.75 365.59 141.23 365.25 140.84 364.75C140.46 364.26 140.22 363.73 139.98 363.28C139.17 361.28 137.3 362.58 136.95 363.8C136.5 365.05 136.41 366.03 136.21 366Z" />
				<path id="Fill-173" fill-rule="evenodd" class="shp16" d="M134.21 292C134.09 291.98 133.84 291.09 134.15 289.5C134.31 288.74 134.84 287.7 135.88 287.22C136.39 286.98 137.08 286.89 137.72 287.2C138.35 287.51 138.74 288.12 139.01 288.63C139.55 289.71 139.91 290.36 140.63 290.64C141.32 290.93 142.01 290.83 142.51 290.52C143.55 289.88 143.72 288.89 143.9 288.94C144.03 288.89 144.24 290.13 142.98 291.28C142.37 291.83 141.3 292.13 140.27 291.76C139.75 291.59 139.23 291.25 138.84 290.75C138.46 290.26 138.22 289.73 137.98 289.28C137.17 287.28 135.3 288.58 134.95 289.8C134.5 291.05 134.41 292.03 134.21 292Z" />
				<path id="Fill-175" fill-rule="evenodd" class="shp16" d="M121.76 375.96C121.69 376.07 120.75 375.97 119.39 375.12C118.74 374.69 117.99 373.83 118 372.71C117.99 372.16 118.21 371.49 118.78 371.03C119.35 370.57 120.08 370.43 120.68 370.36C121.93 370.28 122.7 370.18 123.27 369.63C123.84 369.11 124.05 368.44 123.98 367.87C123.83 366.69 122.98 366.17 123.1 366.03C123.11 365.89 124.37 366.15 124.9 367.72C125.14 368.47 124.97 369.55 124.17 370.37C123.78 370.77 123.24 371.12 122.6 371.3C121.97 371.46 121.37 371.49 120.84 371.55C118.62 371.56 119.02 373.74 120.01 374.49C120.99 375.36 121.88 375.8 121.76 375.96Z" />
				<path id="Fill-177" fill-rule="evenodd" class="shp16" d="M79.19 303C79.3 302.95 80.05 303.46 80.72 304.81C81.03 305.47 81.2 306.55 80.58 307.52C80.29 308 79.75 308.48 79.02 308.62C78.3 308.76 77.6 308.55 77.07 308.34C75.97 307.85 75.28 307.58 74.5 307.81C73.74 308 73.2 308.48 72.96 309C72.44 310.09 72.88 310.92 72.7 310.99C72.61 311.11 71.7 310.32 72.1 308.72C72.3 307.96 73.04 307.1 74.14 306.76C74.69 306.58 75.33 306.53 75.96 306.67C76.58 306.8 77.1 307.05 77.57 307.24C79.44 308.24 80.28 306.17 79.86 305.07C79.5 303.88 79 303.1 79.19 303Z" />
				<path id="Fill-179" fill-rule="evenodd" class="shp16" d="M121.19 296C121.31 295.94 122.05 296.46 122.72 297.81C123.03 298.47 123.2 299.55 122.58 300.52C122.29 301 121.75 301.48 121.02 301.62C120.3 301.76 119.6 301.55 119.07 301.34C117.98 300.85 117.28 300.58 116.5 300.81C115.74 301 115.2 301.48 114.96 302C114.45 303.09 114.88 303.92 114.7 303.99C114.61 304.11 113.7 303.31 114.1 301.72C114.3 300.96 115.04 300.1 116.14 299.76C116.69 299.58 117.33 299.53 117.96 299.67C118.58 299.8 119.1 300.06 119.57 300.24C121.44 301.24 122.28 299.17 121.86 298.07C121.5 296.87 121 296.1 121.19 296Z" />
				<path id="Fill-181" fill-rule="evenodd" class="shp6" d="M96.47 338C96.38 337.99 96.39 337.11 96.5 335.51C96.6 333.92 96.8 331.61 97.07 328.77C97.61 323.08 98.45 315.22 99.45 306.58C99.68 304.43 99.79 302.34 99.48 300.39C99.19 298.44 98.38 296.69 97.21 295.26C94.85 292.39 91.5 290.9 88.66 290.25C85.77 289.6 83.31 289.63 81.63 289.68C79.95 289.73 79.02 289.83 79 289.73C78.98 289.66 79.89 289.4 81.59 289.19C83.28 288.99 85.8 288.82 88.86 289.38C91.88 289.95 95.53 291.43 98.18 294.55C99.5 296.09 100.44 298.08 100.78 300.21C101.13 302.33 101.01 304.52 100.78 306.7C99.78 315.38 98.79 323.2 98.01 328.86C97.62 331.7 97.28 333.98 97.02 335.56C96.75 337.14 96.56 338.01 96.47 338Z" />
				<path id="Fill-183" fill-rule="evenodd" class="shp6" d="M97 337.1C97.04 337.43 88.78 338.56 78.57 339.61C68.35 340.66 60.04 341.24 60 340.9C59.96 340.57 68.22 339.44 78.44 338.39C88.65 337.34 96.96 336.76 97 337.1Z" />
				<path id="Fill-185" fill-rule="evenodd" class="shp3" d="M187.73 351.08C188.04 348.89 187.98 346.8 189.17 344.87C191.54 341.02 194.89 341.99 198.14 343.68C201.46 345.41 204.57 346.44 208.18 344.83C213.8 342.31 216.44 333.54 211.07 329.41C209.34 328.07 207.62 330.28 207.86 331.97C208.18 334.33 209.31 336.93 207.36 338.96C204.75 341.67 201.68 339.39 199.07 338.17C196.26 336.86 193.26 336.57 190.35 337.79C185.35 339.88 181.72 346.9 185.69 351.64C186.25 352.31 187.59 352.01 187.73 351.08Z" />
				<path id="Fill-187" fill-rule="evenodd" class="shp1" d="M224.98 270.75C220.9 274.57 219.35 280.52 223.24 285.1C226.9 289.42 233.98 290.34 238.55 286.9C249.58 278.59 238.08 263.25 226.18 266.43C223.97 267.01 224.52 270.08 226.7 270.2C230.18 270.39 233.9 270.52 236.68 272.91C239.67 275.46 239.74 279.79 237.29 282.73C230.8 290.52 219.53 279.05 226.34 272.09C227.2 271.21 225.88 269.91 224.98 270.75Z" />
				<path id="Fill-189" fill-rule="evenodd" class="shp2" d="M61.98 263.75C57.9 267.57 56.35 273.52 60.24 278.1C63.9 282.42 70.98 283.34 75.55 279.9C86.58 271.59 75.08 256.25 63.18 259.43C60.97 260.01 61.52 263.08 63.7 263.2C67.18 263.39 70.9 263.52 73.69 265.91C76.67 268.46 76.74 272.79 74.29 275.73C67.8 283.52 56.53 272.05 63.34 265.09C64.2 264.21 62.88 262.91 61.98 263.75Z" />
				<path id="Fill-191" fill-rule="evenodd" class="shp1" d="M7.06 357.04C9.65 366.96 12.5 376.77 15.47 386.59C16.18 388.95 18.34 389.69 20.31 388.31C28.04 382.89 35.77 377.57 43.08 371.57C44.49 370.41 44.18 368.09 42.79 367.1C34.22 361.03 22.65 352.06 11.77 352C9 351.99 7.07 356 9.87 357.67C14.26 360.28 19.52 361.22 24.21 363.23C29.62 365.55 34.98 368.28 39.76 371.8C39.86 370.17 39.97 368.54 40.08 366.91C31.9 372.11 24.19 377.94 16.41 383.75L21.01 384.7C17.69 375 14.28 365.38 10.6 355.83C9.82 353.81 6.51 354.92 7.06 357.04Z" />
				<path id="Fill-193" fill-rule="evenodd" class="shp5" d="M236.95 315.7C243.86 316.57 251.14 317.18 258.11 316.95C260.68 316.87 260.58 313.66 258.11 313.44C251.31 312.8 244.12 312.93 237.3 313.38C235.93 313.47 235.39 315.5 236.95 315.7Z" />
				<path id="Fill-195" fill-rule="evenodd" class="shp5" d="M4.95 315.7C11.86 316.57 19.14 317.18 26.11 316.95C28.68 316.87 28.58 313.66 26.11 313.44C19.31 312.8 12.12 312.93 5.3 313.38C3.93 313.47 3.39 315.5 4.95 315.7Z" />
				<path id="Fill-197" fill-rule="evenodd" class="shp6" d="M50.88 304.4C50.77 304.3 50.65 304.2 50.54 304.1C49.03 302.77 46.56 302.5 45.09 304.1C43.61 305.71 43.66 307.92 45.09 309.53L45.4 309.88C46.74 311.4 49.52 311.35 50.88 309.88C52.23 308.41 52.51 305.83 50.88 304.4Z" />
				<path id="Fill-199" fill-rule="evenodd" class="shp6" d="M148.48 338C148.22 337.98 147.99 331.98 147.48 324.55C146.97 317.1 147.2 310.98 147.52 311C147.78 311.01 148.01 317.01 148.52 324.45C149.03 331.9 148.8 338.02 148.48 338Z" />
				<path id="Fill-201" class="shp6" d="M189 281.12L207.88 276L209 279.31L189.95 285L189 281.12Z" />
				<path id="Fill-203" fill-rule="evenodd" class="shp9" d="M200 280C200 281.11 199.1 282 198 282C196.9 282 196 281.11 196 280C196 278.9 196.9 278 198 278C199.1 278 200 278.9 200 280Z" />
				<path id="Fill-205" fill-rule="evenodd" class="shp6" d="M125.81 229.96C125.57 230.1 125.08 229.85 124.61 229.34C124.14 228.83 123.94 228.2 124.2 228.04C124.43 227.9 124.92 228.15 125.39 228.66C125.86 229.17 126.06 229.8 125.81 229.96Z" />
				<path id="Fill-207" fill-rule="evenodd" class="shp6" d="M110.81 231.96C110.57 232.1 110.08 231.85 109.61 231.34C109.14 230.83 108.94 230.2 109.2 230.04C109.43 229.9 109.92 230.15 110.39 230.66C110.86 231.17 111.06 231.8 110.81 231.96Z" />
				<path id="Fill-209" class="shp5" d="M94 154.74L94 191.9L69.4 191.9L68.62 206L54.16 191.09L0 191.09L4.77 152L94 154.74Z" />
				<path id="Fill-211" fill-rule="evenodd" class="shp9" d="M83.8 166.83C60.03 166.44 36.11 166.3 12.34 166.71C11.89 166.72 11.89 167.28 12.34 167.29C36.11 167.7 60.03 167.56 83.8 167.17C84.07 167.16 84.07 166.84 83.8 166.83Z" />
				<path id="Fill-213" fill-rule="evenodd" class="shp9" d="M83.8 173.83C60.03 173.44 36.11 173.3 12.34 173.71C11.89 173.72 11.89 174.28 12.34 174.29C36.11 174.7 60.03 174.56 83.8 174.17C84.07 174.16 84.07 173.84 83.8 173.83Z" />
				<path id="Fill-215" fill-rule="evenodd" class="shp9" d="M82.8 180.83C68.39 180.46 53.75 180.34 39.34 180.71C38.89 180.72 38.89 181.27 39.34 181.29C53.75 181.66 68.39 181.54 82.8 181.17C83.07 181.16 83.07 180.84 82.8 180.83Z" />
			</g>
		</g>
	</g>
</svg>