<?xml version="1.0" encoding="UTF-8" standalone="no"?>
<svg
   width="330px"
   height="303px"
   viewBox="0 0 330 303"
   version="1.1"
   id="svg303"
   sodipodi:docname="login.svg"
   inkscape:version="1.1 (c68e22c387, 2021-05-23)"
   xmlns:inkscape="http://www.inkscape.org/namespaces/inkscape"
   xmlns:sodipodi="http://sodipodi.sourceforge.net/DTD/sodipodi-0.dtd"
   xmlns:xlink="http://www.w3.org/1999/xlink"
   xmlns="http://www.w3.org/2000/svg"
   xmlns:svg="http://www.w3.org/2000/svg"
   xmlns:rdf="http://www.w3.org/1999/02/22-rdf-syntax-ns#"
   xmlns:cc="http://creativecommons.org/ns#"
   xmlns:dc="http://purl.org/dc/elements/1.1/">
  <sodipodi:namedview
     id="namedview305"
     pagecolor="#ffffff"
     bordercolor="#666666"
     borderopacity="1.0"
     inkscape:pageshadow="2"
     inkscape:pageopacity="0.0"
     inkscape:pagecheckerboard="0"
     showgrid="false"
     inkscape:zoom="2.669967"
     inkscape:cx="91.199629"
     inkscape:cy="151.5"
     inkscape:window-width="1920"
     inkscape:window-height="1017"
     inkscape:window-x="-8"
     inkscape:window-y="-8"
     inkscape:window-maximized="1"
     inkscape:current-layer="svg303" />
  <!-- Generator: Sketch 64 (93537) - https://sketch.com -->
  <title
     id="title158">Group 261</title>
  <desc
     id="desc160">Created with Sketch.</desc>
  <defs
     id="defs163">
    <polygon
       id="path-1"
       points="0 0.0109105184 329.765526 0.0109105184 329.765526 287.930563 0 287.930563" />
    <mask
       id="mask-2"
       fill="#ffffff">
      <use
         xlink:href="#path-1"
         id="use165"
         x="0"
         y="0"
         width="100%"
         height="100%" />
    </mask>
  </defs>
  <path
     d="M 83.778099,282.57087 C 43.383493,268.98724 8.344875,235.22844 1.169546,193.31469 -6.0057829,151.40095 20.498428,104.15596 62.143559,95.069883 81.835007,90.771537 103.08961,94.610815 121.90178,87.395657 157.3833,73.788198 169.44132,27.751507 202.22205,8.550785 c 31.5823,-18.4969624 74.88177,-5.1558497 98.41164,22.840782 23.5277,27.996632 30.39257,66.627609 28.95099,103.129983 -2.11895,53.62863 -24.96711,111.46466 -73.73763,134.14087 -41.09803,19.10761 -127.99007,24.52331 -172.068951,13.90845"
     id="Fill-1"
     fill="#e2d3f5"
     mask="url(#mask-2)"
     style="fill-rule:evenodd;stroke:none;stroke-width:1;fill:#5eceff;fill-opacity:1" />
  <path
     d="m 35,273.32324 c 8.900235,14.73684 27.237359,20.26907 43.949373,19.91739 16.709851,-0.35168 33.049667,-5.33159 49.735717,-6.34155 26.44536,-1.5961 52.36056,6.78115 78.35582,12.08795 25.99743,5.30454 54.4098,7.19821 77.59413,-6.15219 5.67598,-3.26658 11.15288,-7.73024 13.45097,-14.04925 2.29809,-6.31676 0.22072,-14.70302 -5.76037,-17.31359 -2.31757,-1.00996 -4.89697,-1.07308 -7.40929,-1.12268 -55.69301,-1.07533 -111.38602,-2.15067 -167.07903,-3.22826 -28.349618,-0.54781 -59.601063,-0.0451 -80.868146,19.49357"
     id="Fill-4"
     fill="#beadd9"
     style="fill-rule:evenodd;stroke:none;stroke-width:1;fill:#adcad9;fill-opacity:1" />
  <path
     d="m 274.90397,107.21635 c -3.42557,3.27172 -4.72951,8.36469 -1.46094,12.29553 3.0767,3.69885 9.02948,4.48371 12.87153,1.53504 9.27805,-7.12018 -0.39249,-20.25695 -10.40319,-17.5381 -1.85343,0.50301 -1.39117,3.1308 0.44046,3.23487 2.92624,0.16478 6.05962,0.27752 8.39931,2.31774 2.50976,2.18983 2.56645,5.89518 0.50587,8.41456 -5.4578,6.67137 -14.93428,-3.15248 -9.20391,-9.11703 0.72393,-0.75235 -0.39249,-1.86461 -1.14913,-1.14261"
     id="Fill-6"
     fill-opacity="0.5"
     style="fill:#3a3a3a;fill-rule:evenodd;stroke:none;stroke-width:1" />
  <path
     d="m 51.668409,74.855314 c -3.445199,-1.548053 -7.684101,-1.19031 -10.817488,0.91062 -3.133386,2.100929 -5.054411,5.875663 -4.901776,9.633053 0.119928,2.935663 1.297401,6.27677 -0.580014,8.546814 -1.452217,1.751858 -4.042657,1.916637 -6.12286,2.853274 -3.955436,1.777876 -5.924433,6.979245 -4.125516,10.907925 0.972506,2.12694 2.902253,4.08477 2.533748,6.39168 -0.237676,1.49385 -1.430412,2.67548 -2.749618,3.42783 -1.321386,0.75018 -2.799769,1.17947 -4.166946,1.84292 -4.980274,2.42398 -8.004635,8.05465 -7.862902,13.56606 0.143913,5.51142 3.19444,10.74097 7.568534,14.12978 4.376275,3.38881 9.954007,5.03442 15.494672,5.2404 5.553747,0.20597 11.362613,-1.08841 15.599335,-4.66151 3.181358,-2.68416 5.257199,-6.44371 6.787914,-10.30084 2.913155,-7.33482 4.092808,-15.34177 3.421213,-23.19694 -0.699943,-8.15222 -3.349257,-16.052924 -3.929271,-24.213809 -0.194065,-2.734027 -0.154816,-5.504912 -0.767538,-8.17823 -0.612722,-2.673319 -1.988621,-5.316284 -4.345747,-6.736416"
     id="Fill-8"
     style="fill:#3a3a3a;fill-rule:evenodd;stroke:none;stroke-width:1" />
  <path
     d="m 50.405678,75.910765 c 3.155191,-6.521769 9.428505,-11.4673 16.536953,-13.034867 4.365372,-0.962655 9.155942,-0.637433 12.991451,1.647788 3.83769,2.285221 6.489184,6.74292 5.904809,11.15292 -0.361964,2.725354 -1.849069,5.158009 -2.793227,7.742434 -0.944159,2.586593 -1.253791,5.739071 0.501516,7.863849 1.574325,1.907965 4.27379,2.378452 6.423769,3.612124 3.070151,1.764867 4.999899,5.324957 4.797112,8.846017 -0.202787,3.52106 -2.531567,6.83832 -5.784881,8.24111 3.231509,0.37292 6.268953,2.17031 8.137646,4.81544 1.870874,2.6473 2.542469,6.09681 1.801098,9.24712 -1.064087,4.51407 -4.753502,7.96792 -8.722022,10.40708 -5.512318,3.38881 -11.90556,5.35314 -18.381661,5.64368 -6.872953,0.31004 -14.485097,-1.71284 -18.224664,-7.45624 -2.453069,-3.7704 -2.828116,-8.47527 -3.102859,-12.95899 -0.830773,-13.53354 -1.399885,-27.082252 -1.968997,-40.628801 -0.09158,-2.178982 -0.180982,-4.392655 0.335798,-6.513097"
     id="Fill-10"
     style="fill:#3a3a3a;fill-rule:evenodd;stroke:none;stroke-width:1" />
  <path
     d="m 73.528848,137.05583 61.618902,22.96929 -5.883,-24.74283 16.02453,-4.05009 c 0,0 17.2369,48.36907 5.26592,49.66345 -20.95684,2.26788 -52.665746,-5.98407 -52.665746,-5.98407 z"
     id="Fill-12"
     fill-opacity="0.5"
     style="fill:#3a3a3a;fill-rule:evenodd;stroke:none;stroke-width:1" />
  <path
     d="m 68.142345,242.62784 c 0,0 74.440275,-80.79145 124.694385,-63.15362 50.25411,17.64 71.4726,99.92747 71.4726,99.92747 l -40.02753,-0.6461 c 0,0 -31.61079,-62.14978 -47.03569,-59.74314 -15.42707,2.41097 -63.06675,61.56655 -63.06675,61.56655 z"
     id="Fill-14"
     fill-opacity="0.5"
     style="fill:#3a3a3a;fill-rule:evenodd;stroke:none;stroke-width:1" />
  <path
     d="m 91.693548,193.58015 3.089776,47.40208 c -16.046339,19.61734 -71.908707,-5.74558 -71.908707,-5.74558 l -0.651971,-19.81898 -1.297401,-47.20478 c 1.286498,-18.79779 18.846108,-28.02323 18.846108,-28.02323 7.258903,-3.59912 18.329329,-5.64151 28.30296,-5.14934 10.411914,0.50952 12.98491,5.46806 17.273964,14.91465 3.464823,7.63186 12.869343,20.06615 6.345271,43.62518"
     id="Fill-16"
     fill-opacity="0.5"
     style="fill:#3a3a3a;fill-rule:evenodd;stroke:none;stroke-width:1" />
  <path
     d="m 33.315095,244.16723 c 0,0 -8.543221,34.57752 17.496375,40.02823 26.039596,5.44854 121.81175,-7.30014 146.75674,-5.11899 24.94498,2.17682 95.88554,6.29412 95.88554,6.29412 l 5.19397,-41.06244 c 0,0 -110.39681,-5.26208 -122.87367,-2.17681 -12.47685,3.08093 -142.458955,2.03589 -142.458955,2.03589"
     id="Fill-18"
     fill-opacity="0.5"
     style="fill:#3a3a3a;fill-rule:evenodd;stroke:none;stroke-width:1" />
  <path
     d="m 45.799796,183.71553 c 0,0 -7.80839,45.7543 3.203163,44.62686 36.220375,-3.70318 57.787751,-4.20186 57.787751,-4.20186 l 6.00315,12.3931 c 0.13934,2.11177 -68.592374,21.67491 -79.636634,15.20735 -7.797487,-4.56611 -20.219827,-16.86814 -14.58104,-53.63115 l 1.332289,-12.32372 z"
     id="Fill-20"
     style="fill:#3a3a3a;fill-rule:evenodd;stroke:none;stroke-width:1" />
  <polygon
     id="Fill-22"
     fill-opacity="0.5"
     points="111.86887,198.95041 123.93578,156.99253 174.29674,155.77837 160.70783,201.19226 66.481648,208.40134 66.407511,205.33342 "
     transform="translate(12,41)"
     style="fill:#3a3a3a;fill-rule:evenodd;stroke:none;stroke-width:1" />
  <path
     d="m 160.20067,217.87851 c 0.0502,2.04672 -1.57869,3.74872 -3.63709,3.79858 -2.05839,0.0477 -3.76791,-1.5719 -3.81806,-3.61863 -0.0502,-2.04455 1.57868,-3.74654 3.63708,-3.79641 2.0584,-0.0477 3.76792,1.56973 3.81807,3.61646"
     id="Fill-24"
     style="fill:#3a3a3a;fill-rule:evenodd;stroke:none;stroke-width:1" />
  <path
     d="m 161.69344,217.84252 c 0.0698,2.86628 -2.21103,5.2469 -5.09366,5.31628 -2.88263,0.0694 -5.27682,-2.1985 -5.3466,-5.06478 -0.0698,-2.86628 2.21103,-5.2469 5.09366,-5.31411 2.88263,-0.0694 5.27682,2.19849 5.3466,5.06261"
     id="Fill-26"
     style="fill:#3a3a3a;fill-rule:evenodd;stroke:none;stroke-width:1" />
  <path
     d="m 25.876955,153.36893 c 0,0 -8.449459,8.06548 -10.337777,38.58858 l 32.698859,-3.59695 c 0,0 5.449084,-51.98553 -22.361082,-34.99163"
     id="Fill-28"
     style="fill:#3a3a3a;fill-rule:evenodd;stroke:none;stroke-width:1" />
  <path
     d="m 265.90612,61.582819 c 0,0 11.59156,25.883274 14.82307,24.526017 3.23369,-1.355088 33.16985,-19.823318 33.16985,-19.823318 0,0 -12.2697,-23.173098 -14.82307,-24.526018 -2.55337,-1.350752 -33.16985,19.823319 -33.16985,19.823319"
     id="Fill-30"
     fill-opacity="0.5"
     style="fill:#3a3a3a;fill-rule:evenodd;stroke:none;stroke-width:1" />
  <path
     d="m 299.07575,41.760367 c 0.14609,0.0542 -0.70649,2.710177 -2.20449,6.955399 -1.49583,4.247389 -3.63927,10.086194 -6.06835,16.510398 -0.0611,0.158274 -0.12211,0.316548 -0.17662,0.463982 l -0.16354,0.43146 -0.46008,-0.07372 c -6.70506,-1.086239 -12.7407,-2.126947 -17.09517,-2.933495 -4.35447,-0.806549 -7.02777,-1.378938 -7.00179,-1.530708 0.0242,-0.15177 2.74109,0.145265 7.12826,0.750177 4.38718,0.607079 10.44462,1.519867 17.15186,2.599602 l -0.62145,0.359911 c 0.0545,-0.147434 0.11339,-0.305708 0.17445,-0.463982 2.43126,-6.424204 4.69244,-12.219646 6.38233,-16.393319 1.6899,-4.17584 2.8085,-6.729911 2.95459,-6.675708"
     id="Fill-32"
     style="fill:#3a3a3a;fill-rule:evenodd;stroke:none;stroke-width:1" />
  <path
     d="m 276.9205,83.069319 c -0.30527,-0.06721 0.59528,-4.318939 2.01261,-9.492124 1.41951,-5.175354 2.81067,-9.292655 3.1094,-9.197257 0.29873,0.0954 -0.60182,4.347124 -2.0126,9.494292 -1.41079,5.145 -2.80413,9.262301 -3.10941,9.195089"
     id="Fill-34"
     style="fill:#3a3a3a;fill-rule:evenodd;stroke:none;stroke-width:1" />
  <path
     d="m 311.9235,61.137049 c -0.048,0.307876 -4.22582,-0.09323 -9.33038,-0.899779 -5.10456,-0.802213 -9.20173,-1.704159 -9.15376,-2.012036 0.0501,-0.307876 4.22582,0.09323 9.33256,0.897611 5.10239,0.804381 9.19956,1.706328 9.15158,2.014204"
     id="Fill-36"
     style="fill:#3a3a3a;fill-rule:evenodd;stroke:none;stroke-width:1" />
  <path
     d="m 42.253204,89.389668 0.739192,9.689425 c 0,0 -8.285921,1.112257 -5.922253,8.627037 2.361487,7.51478 8.028621,4.22571 8.028621,4.22571 0,0 1.417328,19.25743 21.257747,13.15194 15.78904,-4.8588 14.823076,-25.189466 12.819191,-42.52159 -0.776259,-6.714734 -7.16514,-11.330708 -13.837487,-10.038495 l -11.927364,2.311239 c -6.892578,1.333407 -11.68969,7.590663 -11.157647,14.554734"
     id="Fill-38"
     style="fill:#3a3a3a;fill-rule:evenodd;stroke:none;stroke-width:1" />
  <path
     d="m 42.99305,107.12225 5.346599,28.34411 c 1.203639,6.38735 7.535827,10.47213 13.892,8.96527 5.889545,-1.39845 9.66182,-7.12018 8.604274,-13.04788 l -2.902252,-16.24588 z"
     id="Fill-40"
     style="fill:#3a3a3a;fill-rule:evenodd;stroke:none;stroke-width:1" />
  <path
     d="m 64.937656,107.44205 c 0.07632,-0.0542 0.237675,0.2515 0.599639,0.2927 0.353242,0.0369 0.891827,-0.32739 1.022657,-1.09708 0.180982,-0.76319 0.08068,-1.76704 -0.02835,-2.92916 -0.09376,-1.24885 -0.185343,-2.48469 -0.281285,-3.776904 -0.337979,-5.363982 -0.359784,-9.728451 -0.04579,-9.74803 0.313993,-0.01945 0.841675,4.312499 1.179653,9.676482 0.06542,1.296552 0.12865,2.532392 0.191885,3.783402 0.04579,1.14695 0.0894,2.28089 -0.246397,3.21969 -0.261661,0.98 -1.275596,1.58708 -1.907943,1.29655 -0.60618,-0.3057 -0.525501,-0.72416 -0.484072,-0.71765"
     id="Fill-42"
     style="fill:#3a3a3a;fill-rule:evenodd;stroke:none;stroke-width:1" />
  <path
     d="m 71.373854,123.106 c 0.0894,0.10408 -0.699942,0.96916 -2.33096,1.90146 -1.613574,0.93014 -4.134238,1.84726 -7.036491,1.9058 -2.902253,0.0629 -5.462166,-0.74584 -7.112809,-1.60876 -1.668086,-0.86292 -2.492317,-1.69332 -2.409458,-1.80173 0.146094,-0.31438 4.01431,2.41531 9.498281,2.28089 5.483971,-0.0954 9.234441,-2.98553 9.391437,-2.67766"
     id="Fill-44"
     style="fill:#3a3a3a;fill-rule:evenodd;stroke:none;stroke-width:1" />
  <path
     d="m 67.498224,111.4182 c 0.111206,0.0802 -0.143914,0.71549 -1.022657,1.32907 -0.848217,0.60708 -2.409459,1.10142 -4.049199,0.58757 -1.633198,-0.53119 -2.612245,-1.83858 -2.945863,-2.82292 -0.353242,-1.00819 -0.189704,-1.6738 -0.05233,-1.67164 0.17226,-0.0152 0.307451,0.57239 0.778441,1.33124 0.455725,0.75235 1.332288,1.68898 2.566455,2.09009 1.238527,0.39027 2.498859,0.13876 3.312187,-0.21031 0.826412,-0.34473 1.282137,-0.74367 1.412968,-0.6331"
     id="Fill-46"
     style="fill:#3a3a3a;fill-rule:evenodd;stroke:none;stroke-width:1" />
  <path
     d="m 42.369207,108.64558 c 0.0022,0.13226 -0.484072,0.36425 -1.345372,0.11275 -0.412115,-0.12792 -0.957242,-0.49434 -1.190556,-1.1296 -0.117747,-0.31005 -0.170079,-0.68947 -0.05233,-1.08624 0.09376,-0.3881 0.466628,-0.80655 0.878744,-0.94098 0.56257,-0.22765 1.349733,-0.0932 1.713877,0.52252 l -0.963783,0.49868 c -0.630166,-1.58708 -0.935437,-2.80341 -0.699942,-2.90748 0.233314,-0.10407 0.935436,0.9388 1.694252,2.46951 l -0.963783,0.49868 c -0.0218,-0.0325 -0.180982,-0.10191 -0.377228,-0.026 -0.211509,0.0629 -0.307451,0.31438 -0.235494,0.6461 0.06978,0.31655 0.281285,0.55288 0.538585,0.73283 0.52114,0.34257 1.016115,0.4423 1.003032,0.60925"
     id="Fill-48"
     style="fill:#3a3a3a;fill-rule:evenodd;stroke:none;stroke-width:1" />
  <path
     d="m 72.883636,95.049168 c -0.305271,0.06938 -0.710845,-0.570221 -0.90709,-1.426637 -0.194065,-0.856416 -0.102484,-1.604425 0.202787,-1.673805 0.305271,-0.06938 0.710845,0.570221 0.90491,1.426637 0.196245,0.856416 0.104664,1.604425 -0.200607,1.673805"
     id="Fill-50"
     style="fill:#3a3a3a;fill-rule:evenodd;stroke:none;stroke-width:1" />
  <path
     d="m 56.085676,96.602208 c -0.30309,0.08456 -0.741371,-0.544204 -0.981227,-1.40062 -0.239856,-0.858584 -0.187523,-1.619601 0.115567,-1.704159 0.30091,-0.08239 0.739191,0.544204 0.979047,1.402788 0.239855,0.856416 0.189704,1.617433 -0.113387,1.701991"
     id="Fill-52"
     style="fill:#3a3a3a;fill-rule:evenodd;stroke:none;stroke-width:1" />
  <path
     d="m 57.64561,89.547292 c -0.09594,0.305708 -0.989949,0.294867 -1.979899,0.570221 -0.998671,0.242832 -1.772751,0.689469 -2.006065,0.468319 -0.242036,-0.18646 0.377228,-1.214159 1.718238,-1.561062 1.33665,-0.353407 2.385473,0.240664 2.267726,0.522522"
     id="Fill-54"
     style="fill:#3a3a3a;fill-rule:evenodd;stroke:none;stroke-width:1" />
  <path
     d="m 74.797902,86.84362 c -0.126469,0.294867 -1.109878,0.149601 -2.261184,0.262345 -1.153488,0.08673 -2.097647,0.401106 -2.272087,0.132256 -0.187523,-0.240664 0.706484,-1.13177 2.173964,-1.255354 1.46748,-0.132256 2.50104,0.591903 2.359307,0.860753"
     id="Fill-56"
     style="fill:#3a3a3a;fill-rule:evenodd;stroke:none;stroke-width:1" />
  <path
     d="m 42.99305,99.079526 c 5.538484,-5.368318 7.165141,-14.311902 8.667509,-21.854867 5.128549,3.714027 12.182484,4.626814 18.096014,2.343761 1.85561,2.168142 4.036116,4.063098 6.445574,5.598142 0.686859,0.437964 1.498007,0.86292 2.278628,0.628761 0.928896,-0.277522 1.343192,-1.337743 1.563423,-2.278717 0.708664,-3.007212 0.73483,-6.226902 -0.320535,-9.13438 -1.055364,-2.903142 -3.268577,-5.457213 -6.166469,-6.571637 -3.096318,-1.192478 -6.580765,-0.674293 -9.797011,0.153938 -4.842902,1.248849 -9.511364,3.167654 -13.828765,5.682699 -4.238903,2.467345 -8.307726,5.734734 -10.106643,10.276991 -1.796736,4.544425 -1.788014,13.377433 2.54465,15.673495"
     id="Fill-58"
     style="fill:#3a3a3a;fill-rule:evenodd;stroke:none;stroke-width:1" />
  <path
     d="m 65.596823,112.46953 c 0.266022,1.52855 -1.044462,3.01589 -2.836837,2.64514 -1.792376,-0.3881 -2.378932,-2.27438 -1.511091,-3.56443 0.865661,-1.30739 2.021329,-2.08141 2.690744,-1.96 0.660693,0.16045 1.402065,1.33558 1.657184,2.8793"
     id="Fill-60"
     style="fill:#3a3a3a;fill-rule:evenodd;stroke:none;stroke-width:1" />
  <path
     d="m 58.695305,103.47305 c 0.274744,1.52854 -1.624476,3.14597 -4.27379,3.26305 -2.649314,0.12359 -4.690267,-1.31823 -4.552896,-2.86411 0.133011,-1.5589 2.056217,-2.66682 4.295596,-2.77522 2.239379,-0.0954 4.256347,0.8369 4.53109,2.37628"
     id="Fill-62"
     style="fill:#3a3a3a;fill-rule:evenodd;stroke:none;stroke-width:1" />
  <path
     d="m 79.673076,101.77062 c 0.311812,1.52204 -1.351914,3.14164 -3.75047,3.26306 -2.400736,0.12358 -4.221458,-1.31823 -4.068823,-2.86412 0.150455,-1.55672 1.842528,-2.66898 3.776636,-2.775219 1.936289,-0.09106 3.733025,0.841239 4.042657,2.376279"
     id="Fill-64"
     style="fill:#3a3a3a;fill-rule:evenodd;stroke:none;stroke-width:1" />
  <path
     d="m 42.765405,124.72888 c -0.318354,-0.007 -0.494975,-3.11564 -0.695581,-6.93374 -0.194065,-3.82026 -0.340159,-6.92938 -0.02399,-6.96841 0.305271,-0.0412 0.961603,3.04191 1.157849,6.90987 0.202787,3.86797 -0.130831,7.00093 -0.438282,6.99228"
     id="Fill-66"
     style="fill:#3a3a3a;fill-rule:evenodd;stroke:none;stroke-width:1" />
  <path
     d="m 75.684713,136.84942 c -5.361863,-2.11827 35.880217,13.10642 35.880217,13.10642 l -4.18439,28.05141 -15.686556,-5.11681 z"
     id="Fill-68"
     fill-opacity="0.5"
     style="fill:#3a3a3a;fill-rule:evenodd;stroke:none;stroke-width:1" />
  <path
     d="m 51.143343,73.393336 c 1.297401,-1.946991 1.72478,-4.44469 1.146946,-6.70823 -0.47535,-1.864602 -1.890498,-3.714026 -3.822426,-3.811593 -1.096794,-0.05637 -2.160881,0.474823 -2.967668,1.218496 -1.992982,1.834248 -2.505401,5.064779 -1.177473,7.41938 1.327928,2.354602 4.365372,3.60562 6.979798,2.874956"
     id="Fill-70"
     style="fill:#3a3a3a;fill-rule:evenodd;stroke:none;stroke-width:1" />
  <path
     d="m 297.54154,253.04511 c 0,0 13.41447,-19.123 11.77909,-11.88358 -1.63537,7.23943 -15.26135,39.41682 -15.26135,39.41682 z"
     id="Fill-72"
     fill-opacity="0.5"
     style="fill:#3a3a3a;fill-rule:evenodd;stroke:none;stroke-width:1" />
  <path
     d="m 102.9805,224.14357 c 0,0 17.72533,-5.52876 17.11697,-3.70969 -0.60837,1.8169 -3.624,1.88412 -6.63964,4.81761 0,0 19.81425,0.21248 18.86137,1.83642 -0.95288,1.62177 -13.85057,2.03155 -13.92907,2.3069 -0.0763,0.27752 14.10787,0.62226 13.78952,2.12261 -0.32054,1.50252 -13.50169,1.13611 -13.50169,1.13611 0,0 12.21955,1.29221 11.96879,2.90964 -0.25076,1.6196 -11.51525,0.45314 -11.51525,0.45314 0,0 9.42851,1.07107 9.18211,2.53673 -0.14827,0.89327 -27.6052,1.09491 -27.66219,1.75186 -0.0302,0.34473 2.32908,-16.16133 2.32908,-16.16133"
     id="Fill-74"
     style="fill:#3a3a3a;fill-rule:evenodd;stroke:none;stroke-width:1" />
  <path
     d="m 130.42107,136.84942 c 0,0 -10.76298,-14.96018 -8.84413,-14.9515 1.91884,0.007 2.91969,2.82292 6.64618,4.75039 0,0 -5.94624,-18.70672 -4.10807,-18.31429 1.84252,0.39244 6.23406,12.3996 6.52189,12.3866 0.28564,-0.013 -3.78972,-13.46633 -2.26119,-13.63111 1.52636,-0.16478 5.27029,12.34973 5.27029,12.34973 0,0 -2.56428,-11.89659 -0.94634,-12.16327 1.62011,-0.26668 4.00559,10.69327 4.00559,10.69327 0,0 -1.90795,-9.20376 -0.43611,-9.42924 0.89619,-0.1366 9.02076,22.69393 9.02076,22.69393 -0.2137,0 -14.86887,5.61549 -14.86887,5.61549"
     id="Fill-76"
     fill-opacity="0.5"
     style="fill:#3a3a3a;fill-rule:evenodd;stroke:none;stroke-width:1" />
  <path
     d="m 31.159011,178.00703 c 0.117747,-0.0108 0.51896,0.69815 0.540765,2.11177 -0.0044,0.68514 -0.285646,1.68031 -1.162209,2.3004 -0.418657,0.31005 -1.042282,0.5312 -1.687711,0.39027 -0.638889,-0.13226 -1.12078,-0.56372 -1.46748,-0.94097 -0.702123,-0.81306 -1.157849,-1.29439 -1.877416,-1.37894 -0.689039,-0.10841 -1.310483,0.12141 -1.709516,0.48349 -0.837314,0.76102 -0.811148,1.63912 -0.981227,1.62828 -0.113387,0.0716 -0.547307,-0.93881 0.394671,-2.17465 0.460087,-0.58973 1.386802,-1.07106 2.41382,-0.97133 0.508057,0.0434 1.051003,0.22332 1.508909,0.57022 0.447004,0.33607 0.765358,0.74151 1.07935,1.0754 1.129502,1.53071 2.607885,0.0369 2.688564,-1.06455 0.178801,-1.16213 0.07414,-2.01638 0.25948,-2.02939"
     id="Fill-78"
     style="fill:#3a3a3a;fill-rule:evenodd;stroke:none;stroke-width:1" />
  <path
     d="m 40.841327,169.69763 c -0.07196,-0.0932 0.329256,-0.80438 1.532895,-1.55672 0.590917,-0.35341 1.591769,-0.63093 2.579538,-0.21248 0.484072,0.19513 0.998672,0.60925 1.214542,1.2315 0.21805,0.61142 0.09812,1.24668 -0.04361,1.73668 -0.335798,1.01686 -0.510239,1.65646 -0.209329,2.31341 0.263841,0.6396 0.784982,1.04721 1.306123,1.19682 1.085892,0.31438 1.827263,-0.16478 1.907942,-0.013 0.119928,0.0585 -0.523321,0.95181 -2.07366,0.7957 -0.745733,-0.0824 -1.641921,-0.61792 -2.091105,-1.54371 -0.226773,-0.45531 -0.353242,-1.01036 -0.294368,-1.57841 0.05669,-0.55504 0.237675,-1.03637 0.359783,-1.4765 0.730469,-1.75403 -1.323567,-2.23319 -2.313516,-1.72801 -1.088073,0.45314 -1.76839,0.9865 -1.875235,0.83473"
     id="Fill-80"
     style="fill:#3a3a3a;fill-rule:evenodd;stroke:none;stroke-width:1" />
  <path
     d="m 40.187612,148.99665 c -0.07196,-0.0954 0.329256,-0.80438 1.530714,-1.55672 0.590917,-0.35341 1.59395,-0.6331 2.581719,-0.21248 0.484072,0.19513 0.998671,0.60925 1.212361,1.2315 0.220231,0.61142 0.100303,1.24668 -0.04143,1.73668 -0.335798,1.01686 -0.512419,1.65646 -0.209328,2.31124 0.263841,0.64177 0.784982,1.04938 1.303942,1.19898 1.088072,0.31439 1.829444,-0.16477 1.910123,-0.013 0.119927,0.0585 -0.523322,0.95181 -2.075841,0.7957 -0.745733,-0.0846 -1.639741,-0.62008 -2.088925,-1.54371 -0.226772,-0.45531 -0.353242,-1.01036 -0.296548,-1.57841 0.05669,-0.55504 0.239855,-1.03637 0.361963,-1.4765 0.728289,-1.75403 -1.323566,-2.23319 -2.313516,-1.73018 -1.090253,0.45531 -1.76839,0.98867 -1.875234,0.8369"
     id="Fill-82"
     style="fill:#3a3a3a;fill-rule:evenodd;stroke:none;stroke-width:1" />
  <path
     d="m 60.833291,175.95749 c -0.0894,0.078 -0.832953,-0.25801 -1.692072,-1.38111 -0.405574,-0.55504 -0.771899,-1.52203 -0.438282,-2.53889 0.152636,-0.4965 0.523321,-1.04288 1.127321,-1.30956 0.593098,-0.27101 1.238528,-0.20597 1.742224,-0.1084 1.048823,0.24283 1.705155,0.36208 2.335322,0.006 0.619263,-0.31872 0.981227,-0.87159 1.088072,-1.39845 0.220231,-1.10575 -0.324896,-1.79739 -0.180982,-1.89062 0.05015,-0.12358 1.000852,0.4358 0.976866,1.98602 -0.01744,0.74584 -0.47535,1.67814 -1.362816,2.205 -0.436101,0.26451 -0.979047,0.43796 -1.5547,0.42929 -0.56257,-0.007 -1.059726,-0.14527 -1.51109,-0.22766 -1.820722,-0.57022 -2.121632,1.50686 -1.530715,2.44133 0.549487,1.04071 1.142585,1.6673 1.000852,1.78655"
     id="Fill-84"
     style="fill:#3a3a3a;fill-rule:evenodd;stroke:none;stroke-width:1" />
  <path
     d="m 74.910634,197.60725 c 0.06323,0.0997 -0.38813,0.7762 -1.641921,1.44182 -0.617083,0.31004 -1.635379,0.51168 -2.59044,0.0217 -0.468809,-0.22983 -0.9507,-0.6808 -1.12078,-1.31823 -0.17226,-0.62443 -0.0044,-1.24885 0.174441,-1.72584 0.407754,-0.99301 0.630166,-1.61744 0.379408,-2.29173 -0.218051,-0.65911 -0.706484,-1.10358 -1.214542,-1.29221 -1.059726,-0.39244 -1.833805,0.0325 -1.903581,-0.12359 -0.115567,-0.0694 0.593097,-0.91278 2.128173,-0.64177 0.737011,0.1366 1.589588,0.735 1.968996,1.69115 0.191885,0.47049 0.279105,1.03204 0.178802,1.59576 -0.09812,0.54854 -0.316173,1.01686 -0.470989,1.44615 -0.856939,1.69332 1.155668,2.32641 2.180505,1.89279 1.118599,-0.37293 1.835986,-0.85425 1.931928,-0.69598"
     id="Fill-86"
     style="fill:#3a3a3a;fill-rule:evenodd;stroke:none;stroke-width:1" />
  <path
     d="m 91.483783,163.46119 c 0.06323,0.0997 -0.38813,0.77836 -1.64192,1.44181 -0.617083,0.30788 -1.635379,0.51169 -2.590441,0.0217 -0.468808,-0.22983 -0.9507,-0.6808 -1.120779,-1.31607 -0.17226,-0.62659 -0.0044,-1.25101 0.17444,-1.728 0.407755,-0.99085 0.630166,-1.61527 0.379408,-2.29173 -0.218051,-0.65912 -0.706484,-1.10359 -1.214542,-1.29221 -1.059725,-0.39244 -1.833805,0.0303 -1.903581,-0.12359 -0.115567,-0.0694 0.593098,-0.91278 2.128173,-0.64177 0.737011,0.1366 1.589589,0.735 1.968997,1.69115 0.194065,0.47049 0.279105,1.03204 0.178801,1.59576 -0.09812,0.54854 -0.316173,1.01685 -0.470989,1.44615 -0.856938,1.69548 1.155668,2.32424 2.180506,1.89278 1.118599,-0.37292 1.835985,-0.85424 1.931927,-0.69597"
     id="Fill-88"
     style="fill:#3a3a3a;fill-rule:evenodd;stroke:none;stroke-width:1" />
  <path
     d="m 102.79101,158.26632 c 0.072,-0.0932 0.86566,0.0997 1.91885,1.04938 0.49933,0.47266 1.03792,1.35726 0.89618,2.41748 -0.0589,0.51385 -0.32271,1.11876 -0.86784,1.49168 -0.53422,0.37292 -1.17965,0.42713 -1.69425,0.42279 -1.07499,-0.0477 -1.74222,-0.0455 -2.29607,0.41845 -0.54949,0.42713 -0.804608,1.03421 -0.81333,1.57407 -0.0109,1.12527 0.65197,1.70633 0.52768,1.82341 -0.0262,0.13226 -1.064084,-0.245 -1.327925,-1.77354 -0.117748,-0.73717 0.159177,-1.73668 0.935435,-2.41531 0.37941,-0.3404 0.88311,-0.60925 1.45004,-0.70681 0.55385,-0.0932 1.06844,-0.0477 1.52853,-0.0499 1.89268,0.22982 1.80982,-1.8646 1.05537,-2.67766 -0.73265,-0.92363 -1.43042,-1.43097 -1.31267,-1.57407"
     id="Fill-90"
     style="fill:#3a3a3a;fill-rule:evenodd;stroke:none;stroke-width:1" />
  <path
     d="m 57.047279,215.26351 c 0.06323,0.0997 -0.38813,0.7762 -1.64192,1.44182 -0.617083,0.30787 -1.635379,0.51168 -2.590441,0.0217 -0.468808,-0.23199 -0.9507,-0.6808 -1.120779,-1.31823 -0.17226,-0.62443 -0.0044,-1.24885 0.17226,-1.72584 0.409935,-0.99301 0.632346,-1.61744 0.381588,-2.29173 -0.218051,-0.65911 -0.706484,-1.10358 -1.214542,-1.29221 -1.061906,-0.39243 -1.835985,0.0325 -1.903581,-0.12358 -0.115567,-0.0694 0.590917,-0.91279 2.128173,-0.64177 0.737011,0.13659 1.589589,0.735 1.968997,1.69115 0.191884,0.47048 0.276924,1.03203 0.178801,1.59575 -0.09812,0.54854 -0.316173,1.01686 -0.470989,1.44398 -0.856938,1.69549 1.155668,2.32642 2.178325,1.89496 1.12078,-0.37292 1.838166,-0.85425 1.934108,-0.69598"
     id="Fill-92"
     style="fill:#3a3a3a;fill-rule:evenodd;stroke:none;stroke-width:1" />
  <path
     d="m 81.576875,182.40489 c -0.09812,0.0672 -0.798065,-0.3534 -1.517632,-1.5719 -0.337978,-0.59624 -0.584375,-1.60226 -0.133011,-2.57142 0.21151,-0.47482 0.64543,-0.97349 1.275596,-1.16862 0.621444,-0.1973 1.255971,-0.0585 1.744404,0.0976 1.011755,0.36642 1.648463,0.55938 2.317878,0.28186 0.651971,-0.245 1.07935,-0.75018 1.247249,-1.25969 0.348881,-1.07323 -0.111206,-1.82341 0.04361,-1.89712 0.06542,-0.11925 0.941978,0.54637 0.73483,2.08358 -0.106845,0.73934 -0.671595,1.6131 -1.615754,2.03155 -0.464448,0.21031 -1.024838,0.31872 -1.59613,0.24283 -0.556029,-0.0737 -1.03574,-0.26885 -1.471841,-0.40544 -1.740044,-0.77836 -2.28735,1.24668 -1.80982,2.24619 0.420838,1.09708 0.935437,1.78872 0.780621,1.89062"
     id="Fill-94"
     style="fill:#3a3a3a;fill-rule:evenodd;stroke:none;stroke-width:1" />
  <path
     d="m 85.979315,200.05899 c -0.09594,0.0672 -0.798064,-0.35341 -1.517631,-1.57191 -0.335798,-0.59623 -0.584376,-1.60225 -0.130831,-2.57141 0.209329,-0.47483 0.643249,-0.97133 1.275596,-1.16646 0.621444,-0.19947 1.253791,-0.0607 1.742224,0.0976 1.011754,0.36425 1.650642,0.55938 2.317877,0.27969 0.651971,-0.245 1.07935,-0.748 1.247249,-1.25969 0.348881,-1.07323 -0.109025,-1.82124 0.04361,-1.89712 0.06542,-0.11708 0.941979,0.54637 0.737011,2.08358 -0.106845,0.73934 -0.673776,1.6131 -1.617935,2.03155 -0.462267,0.21248 -1.024837,0.31872 -1.59613,0.24283 -0.556029,-0.0737 -1.033559,-0.26885 -1.471841,-0.40327 -1.740043,-0.78053 -2.28735,1.24451 -1.809819,2.24403 0.420837,1.09708 0.937617,1.78871 0.78062,1.89062"
     id="Fill-96"
     style="fill:#3a3a3a;fill-rule:evenodd;stroke:none;stroke-width:1" />
  <path
     d="m 50.476981,192.52773 c -0.117748,-0.0152 -0.351062,-0.79354 -0.06106,-2.17681 0.154816,-0.66779 0.649791,-1.57624 1.63974,-1.99253 0.477531,-0.21247 1.133863,-0.2927 1.733502,-0.013 0.595278,0.26885 0.970325,0.79571 1.225444,1.23801 0.503697,0.94531 0.843856,1.51553 1.526354,1.7562 0.649791,0.25584 1.303942,0.16478 1.774931,-0.1019 0.983408,-0.55939 1.151307,-1.42014 1.317026,-1.37461 0.126469,-0.0434 0.324895,1.03854 -0.865661,2.03806 -0.577834,0.47482 -1.587408,0.74367 -2.568635,0.42062 -0.488433,-0.15177 -0.976867,-0.44664 -1.347553,-0.88461 -0.361963,-0.42495 -0.584375,-0.8911 -0.817689,-1.2857 -0.760997,-1.73669 -2.533748,-0.60275 -2.856462,0.45314 -0.42956,1.09491 -0.51678,1.95349 -0.699942,1.92314"
     id="Fill-98"
     style="fill:#3a3a3a;fill-rule:evenodd;stroke:none;stroke-width:1" />
  <path
     d="m 82.53935,214.32341 c -0.117747,-0.0152 -0.353242,-0.79354 -0.06105,-2.17682 0.152635,-0.66779 0.649791,-1.57624 1.63974,-1.99252 0.47535,-0.21248 1.133863,-0.2927 1.733502,-0.013 0.595278,0.26885 0.968144,0.79571 1.225444,1.23801 0.503697,0.94531 0.843856,1.51553 1.526354,1.75619 0.64761,0.25585 1.303942,0.16478 1.774931,-0.1019 0.983408,-0.55938 1.151307,-1.42013 1.314845,-1.3746 0.126469,-0.0434 0.327076,1.03854 -0.865661,2.03805 -0.577834,0.47483 -1.587408,0.74368 -2.566455,0.42062 -0.488433,-0.15177 -0.976866,-0.44663 -1.347552,-0.8846 -0.361964,-0.42495 -0.584375,-0.8911 -0.81769,-1.28571 -0.760996,-1.73668 -2.535927,-0.60274 -2.856462,0.45531 -0.429559,1.09275 -0.516779,1.95133 -0.699942,1.92098"
     id="Fill-100"
     style="fill:#3a3a3a;fill-rule:evenodd;stroke:none;stroke-width:1" />
  <path
     d="m 81.609801,148.29461 c -0.117748,-0.0152 -0.353242,-0.79571 -0.06105,-2.17682 0.152635,-0.66779 0.64979,-1.57841 1.63974,-1.99252 0.47535,-0.21248 1.133863,-0.2927 1.733501,-0.013 0.595278,0.26668 0.968145,0.79571 1.225444,1.23584 0.503697,0.94748 0.843856,1.5177 1.526354,1.75837 0.64761,0.25367 1.303942,0.16477 1.774932,-0.10191 0.983408,-0.55938 1.151307,-1.42013 1.314845,-1.3746 0.126469,-0.0455 0.327075,1.03637 -0.865661,2.03589 -0.577834,0.47699 -1.587408,0.74367 -2.566455,0.42278 -0.488433,-0.15393 -0.976867,-0.4488 -1.347552,-0.8846 -0.361964,-0.42712 -0.584376,-0.89327 -0.81769,-1.28571 -0.760996,-1.73885 -2.535928,-0.60491 -2.856462,0.45315 -0.42956,1.09491 -0.51678,1.95132 -0.699942,1.92314"
     id="Fill-102"
     style="fill:#3a3a3a;fill-rule:evenodd;stroke:none;stroke-width:1" />
  <path
     d="m 71.135307,223.0892 c -0.06105,0.10191 -0.872202,0.007 -2.036592,-0.80438 -0.556029,-0.40544 -1.199278,-1.21632 -1.192737,-2.28522 -0.0065,-0.51818 0.178802,-1.15128 0.673776,-1.58925 0.481892,-0.43579 1.116419,-0.57022 1.626658,-0.63093 1.072808,-0.0845 1.733501,-0.17128 2.226296,-0.70031 0.490613,-0.49216 0.667234,-1.12526 0.608361,-1.66079 -0.130831,-1.11876 -0.8613,-1.6131 -0.752275,-1.74536 0.0087,-0.13225 1.085892,0.11058 1.539437,1.59576 0.211509,0.71548 0.06105,1.74101 -0.623625,2.51287 -0.333617,0.38376 -0.798064,0.71549 -1.349732,0.88027 -0.538585,0.16261 -1.055365,0.18212 -1.50891,0.23849 -1.907942,0.009 -1.561242,2.07708 -0.710845,2.78823 0.841675,0.82607 1.598311,1.24235 1.500188,1.40062"
     id="Fill-104"
     style="fill:#3a3a3a;fill-rule:evenodd;stroke:none;stroke-width:1" />
  <path
     d="m 33.10751,158.26632 c 0.102484,-0.0585 0.758816,0.4293 1.356275,1.71067 0.276924,0.62876 0.423018,1.64995 -0.122109,2.57358 -0.255119,0.45097 -0.73483,0.90628 -1.38244,1.03854 -0.638888,0.13659 -1.255971,-0.065 -1.72696,-0.26668 -0.972506,-0.46182 -1.587408,-0.71766 -2.278628,-0.50518 -0.673777,0.17996 -1.146946,0.64177 -1.364997,1.13394 -0.453545,1.03204 -0.06978,1.82341 -0.231133,1.88412 -0.07414,0.11057 -0.883105,-0.63961 -0.525502,-2.14863 0.178801,-0.72416 0.826411,-1.53721 1.807639,-1.86244 0.481892,-0.16478 1.051004,-0.21898 1.611393,-0.0867 0.545127,0.12575 1.003033,0.36858 1.426051,0.54637 1.655004,0.94314 2.398556,-1.01903 2.021328,-2.05974 -0.311812,-1.13393 -0.756635,-1.8711 -0.590917,-1.95783"
     id="Fill-106"
     style="fill:#3a3a3a;fill-rule:evenodd;stroke:none;stroke-width:1" />
  <path
     d="m 69.81283,151.73328 c 0.102484,-0.0585 0.758816,0.42929 1.356275,1.71066 0.276924,0.62876 0.423018,1.65213 -0.122109,2.57359 -0.255119,0.45097 -0.73483,0.90628 -1.38244,1.03854 -0.638888,0.13659 -1.255971,-0.065 -1.72696,-0.26669 -0.972506,-0.46181 -1.587408,-0.71765 -2.278628,-0.50517 -0.673777,0.17995 -1.146946,0.64177 -1.364997,1.13394 -0.453545,1.03203 -0.06978,1.8234 -0.231134,1.88411 -0.07414,0.11058 -0.883104,-0.63743 -0.525501,-2.14863 0.178801,-0.72416 0.826411,-1.53721 1.807639,-1.86026 0.481891,-0.16695 1.051003,-0.22115 1.611393,-0.0889 0.545127,0.12576 1.003033,0.36859 1.426051,0.54637 1.655003,0.94315 2.398556,-1.01902 2.021328,-2.05973 -0.311812,-1.13394 -0.756635,-1.87111 -0.590917,-1.95783"
     id="Fill-108"
     style="fill:#3a3a3a;fill-rule:evenodd;stroke:none;stroke-width:1" />
  <path
     d="m 47.184853,190.14154 c -0.0785,-0.009 -0.06541,-0.80445 0.02399,-2.23325 0.0894,-1.43098 0.255119,-3.49722 0.484072,-6.04695 0.455726,-5.0973 1.175293,-12.13942 2.019148,-19.8927 0.191885,-1.92531 0.290007,-3.79858 0.02399,-5.54611 -0.246397,-1.74969 -0.928895,-3.32159 -1.921026,-4.59862 -2.001703,-2.57792 -4.842902,-3.91783 -7.258902,-4.49239 -2.448708,-0.58323 -4.535451,-0.55505 -5.957141,-0.51602 -1.428231,0.0499 -2.221935,0.13876 -2.235182,0.052 -0.01292,-0.0672 0.756799,-0.30354 2.198114,-0.49001 1.436953,-0.17561 3.573848,-0.33389 6.17083,0.17563 2.557733,0.503 5.658411,1.83641 7.906513,4.63331 1.118599,1.37894 1.916664,3.16549 2.197949,5.06695 0.30309,1.90146 0.198426,3.87013 0.0044,5.8258 -0.846036,7.77712 -1.689892,14.78889 -2.350585,19.86885 -0.331437,2.53889 -0.619263,4.59212 -0.843855,6.00575 -0.222412,1.41796 -0.383769,2.19633 -0.462268,2.18772"
     id="Fill-110"
     style="fill:#3a3a3a;fill-rule:evenodd;stroke:none;stroke-width:1" />
  <path
     d="m 48.640448,188.36923 c 0.0326,0.31005 -7.418187,1.34859 -16.643905,2.31775 -9.225718,0.97349 -16.731018,1.50902 -16.763833,1.19681 -0.0326,-0.30787 7.418187,-1.34858 16.646086,-2.31774 9.221357,-0.97133 16.728837,-1.50903 16.761652,-1.19682"
     id="Fill-112"
     style="fill:#3a3a3a;fill-rule:evenodd;stroke:none;stroke-width:1" />
  <path
     d="m 94.056126,184.70204 c -0.372867,-0.0347 1.430411,-6.57381 -0.627986,-14.36394 -1.929747,-7.82482 -6.652722,-12.71398 -6.338729,-12.92212 0.08722,-0.0867 1.384621,0.98 2.993834,3.14814 1.609213,2.15513 3.416852,5.4919 4.44605,9.49646 1.016116,4.00456 1.027018,7.79447 0.64761,10.45261 -0.375047,2.66898 -1.000852,4.22354 -1.120779,4.18885"
     id="Fill-114"
     fill-opacity="0.5"
     style="fill:#3a3a3a;fill-rule:evenodd;stroke:none;stroke-width:1" />
  <path
     d="m 181.32758,185.22933 c 0.28129,-1.86026 0.22678,-3.62947 1.27342,-5.26858 2.08238,-3.26956 5.05005,-2.45651 7.92396,-1.01903 2.91751,1.45916 5.66277,2.33726 8.8354,0.97133 4.99772,-2.1508 7.21093,-9.50513 2.55992,-13.05872 -1.50891,-1.15128 -3.06143,0.74584 -2.83684,2.16814 0.31617,2.00337 1.2974,4.21487 -0.42956,5.93637 -2.30916,2.30474 -5.01952,0.37509 -7.3265,-0.66128 -2.48141,-1.11659 -5.11546,-1.36376 -7.67974,-0.33606 -4.41334,1.7692 -7.62087,7.71642 -4.11461,11.73832 0.49497,0.56805 1.67681,0.31004 1.79455,-0.47049"
     id="Fill-116"
     fill-opacity="0.5"
     style="fill:#3a3a3a;fill-rule:evenodd;stroke:none;stroke-width:1" />
  <path
     d="m 193.02098,99.799566 c 0.46881,3.015884 3.61528,9.379384 6.93401,10.257474 1.75967,0.46616 3.06797,-0.6873 4.43515,-1.62393 2.49013,-1.70633 4.94974,-3.45168 7.41371,-5.19704 0.88965,-0.62876 1.41733,-1.84075 0.75446,-2.85544 -2.18051,-3.336772 -4.35883,-6.673542 -6.53934,-10.008143 -0.57783,-0.882434 -1.91012,-1.426637 -2.87172,-0.748009 -2.72345,1.914469 -5.63879,3.690177 -8.12457,5.906018 -1.69861,1.517699 0.47099,4.102123 2.37894,3.065752 2.76706,-1.504691 5.2899,-3.555752 7.86508,-5.366151 -0.95942,-0.249336 -1.91667,-0.498672 -2.87391,-0.748008 2.17833,3.334601 4.35883,6.671371 6.53716,10.005971 0.25294,-0.95181 0.5037,-1.90579 0.75445,-2.857609 -1.47838,1.047209 -2.96112,2.087919 -4.43515,3.139469 -0.73919,0.52686 -3.76355,3.27173 -4.56597,3.09177 -0.95288,-0.21248 -2.49014,-2.94217 -3.09196,-3.65549 -1.04664,-1.23584 -2.02569,-2.404465 -3.3776,-3.319421 -0.64979,-0.442301 -1.28868,0.286194 -1.19274,0.912787"
     id="Fill-118"
     fill-opacity="0.5"
     style="fill:#3a3a3a;fill-rule:evenodd;stroke:none;stroke-width:1" />
  <path
     d="m 162.14895,130.90307 c -3.42558,3.27173 -4.72952,8.36469 -1.46094,12.29337 3.07451,3.70102 9.02947,4.48588 12.87152,1.53721 9.27805,-7.12018 -0.39249,-20.25695 -10.40319,-17.5381 -1.85343,0.50301 -1.39116,3.1308 0.44046,3.23487 2.92624,0.16478 6.05963,0.27752 8.39713,2.31558 2.51194,2.19199 2.56646,5.89734 0.50806,8.41672 -5.45781,6.67137 -14.93646,-3.15248 -9.20392,-9.11703 0.72175,-0.75235 -0.39249,-1.86461 -1.14912,-1.14262"
     id="Fill-120"
     fill-opacity="0.5"
     style="fill:#3a3a3a;fill-rule:evenodd;stroke:none;stroke-width:1" />
  <path
     d="m 240.99537,161.16708 c -1.18183,6.10115 -2.18923,12.21531 -3.12903,18.35765 -0.22459,1.47651 0.79807,2.47385 2.27209,2.25921 5.80233,-0.83907 11.58721,-1.6131 17.31322,-2.87062 1.10115,-0.24283 1.54815,-1.59142 1.02483,-2.50854 -3.24459,-5.67836 -7.37665,-13.58991 -13.48206,-16.68819 -1.54598,-0.78486 -3.73521,0.91279 -2.57954,2.56491 1.81636,2.59961 4.50492,4.54876 6.62001,6.92938 2.43563,2.7427 4.72298,5.69354 6.47828,8.91757 0.4928,-0.85642 0.98777,-1.71283 1.48057,-2.56708 -5.99639,0.58757 -11.89902,1.6608 -17.83654,2.68199 0.78062,0.58974 1.55907,1.17947 2.33751,1.77137 0.7152,-6.17486 1.35409,-12.33889 1.81854,-18.53544 0.1003,-1.30739 -2.06494,-1.61526 -2.31788,-0.31221"
     id="Fill-122"
     fill-opacity="0.5"
     style="fill:#3a3a3a;fill-rule:evenodd;stroke:none;stroke-width:1" />
  <path
     d="m 217.00807,131.3135 c 0.0829,-1.91013 -3.04399,-2.38712 -3.40377,-0.45964 -1.13169,6.05995 -1.53944,12.52969 -1.58523,18.68071 -0.009,1.28137 1.99734,1.60442 2.28953,0.30787 1.34319,-5.97756 2.43126,-12.40827 2.69947,-18.52894 z"
     id="Fill-124"
     fill-opacity="0.5"
     style="fill:#3a3a3a;fill-rule:evenodd;stroke:none;stroke-width:1" />
  <path
     d="m 299.12023,150.14425 c 2.26773,-0.0802 2.18269,-3.21752 0,-3.44301 -6.02692,-0.62443 -12.39399,-0.49 -18.43399,-0.0564 -1.21236,0.0867 -1.69425,2.08358 -0.30963,2.27655 6.11631,0.85208 12.56843,1.44615 18.74362,1.22283 z"
     id="Fill-126"
     fill-opacity="0.5"
     style="fill:#3a3a3a;fill-rule:evenodd;stroke:none;stroke-width:1" />
  <path
     d="m 230.52524,71.429434 c 5.40983,2.900973 11.33863,5.72823 17.19982,7.603672 1.84689,0.591903 3.10068,-2.267876 1.33447,-3.148141 -5.51231,-2.749204 -11.72239,-4.869646 -17.63592,-6.573806 -1.25598,-0.359911 -2.07367,1.487345 -0.89837,2.118275"
     id="Fill-128"
     fill-opacity="0.5"
     style="fill:#3a3a3a;fill-rule:evenodd;stroke:none;stroke-width:1" />
  <path
     d="m 247.68189,120.75769 c -1.36936,-1.20766 -3.61746,-1.44181 -4.94975,0 -1.34755,1.45916 -1.2974,3.46252 0,4.92385 0.0916,0.1019 0.18316,0.20597 0.27693,0.31004 1.22544,1.37894 3.75265,1.33775 4.98681,0 1.22763,-1.32907 1.47402,-3.65982 0,-4.95854 -0.10466,-0.0911 -0.20933,-0.18212 -0.31399,-0.27535 z"
     id="Fill-130"
     fill-opacity="0.5"
     style="fill:#3a3a3a;fill-rule:evenodd;stroke:none;stroke-width:1" />
  <path
     d="m 271.43531,101.92694 c -3.51776,3.15489 -4.8568,8.06599 -1.50026,11.85647 3.15949,3.56676 9.27247,4.3236 13.21792,1.48022 9.52774,-6.86592 -0.40305,-19.533582 -10.68316,-16.91182 -1.90331,0.485047 -1.4286,3.019 0.45232,3.11935 3.00499,0.1589 6.2227,0.26762 8.62535,2.23498 2.5773,2.11163 2.63552,5.68467 0.51949,8.11408 -5.60469,6.43314 -15.33619,-3.0399 -9.45161,-8.79147 0.74341,-0.72548 -0.40305,-1.79802 -1.18005,-1.10181"
     id="Fill-133"
     fill="#7cabff"
     style="fill-rule:evenodd;stroke:none;stroke-width:1" />
  <path
     d="m 47.750789,70.949106 c -3.440994,-1.539652 -7.674722,-1.18385 -10.804284,0.905677 -3.129562,2.089528 -5.048242,5.843778 -4.895793,9.580777 0.119781,2.919732 1.295817,6.242707 -0.579307,8.500432 -1.450444,1.742351 -4.037723,1.906236 -6.115386,2.83779 -3.950609,1.768228 -5.917202,6.941373 -4.120481,10.848728 0.971319,2.1154 2.898711,4.06261 2.530655,6.35699 -0.237385,1.48574 -1.428666,2.66097 -2.746261,3.40923 -1.319774,0.74611 -2.796352,1.17307 -4.16186,1.83292 -4.974196,2.41083 -7.9948654,8.01094 -7.8533056,13.49244 0.1437377,5.48151 3.1905416,10.68269 7.5592966,14.0531 4.370933,3.37042 9.941858,5.00711 15.475759,5.21196 5.546969,0.20486 11.348745,-1.0825 15.580296,-4.63621 3.177475,-2.66959 5.250782,-6.40874 6.779629,-10.24494 2.909599,-7.29501 4.087813,-15.25851 3.417037,-23.07106 -0.699088,-8.10797 -3.345168,-15.965802 -3.924475,-24.082399 -0.193828,-2.719189 -0.154627,-5.475037 -0.766601,-8.133848 -0.611974,-2.658811 -1.986194,-5.287433 -4.340443,-6.699859"
     id="Fill-135"
     fill="#241352"
     style="fill-rule:evenodd;stroke:none;stroke-width:1" />
  <path
     d="m 47.924798,70.754503 c 3.107567,-6.623247 9.286192,-11.64573 16.287345,-13.237687 4.299481,-0.977634 9.017743,-0.647352 12.795359,1.673426 3.779764,2.320779 6.391237,6.84784 5.815682,11.326459 -0.3565,2.76776 -1.821159,5.238266 -2.751067,7.862904 -0.929907,2.62684 -1.234866,5.82837 0.493947,7.98621 1.550562,1.937652 4.209282,2.41546 6.326809,3.668328 3.023811,1.792328 4.92443,5.407811 4.724704,8.98366 -0.199726,3.575847 -2.493355,6.944727 -5.697564,8.369337 3.182733,0.37872 6.17433,2.20408 8.014817,4.89037 1.842635,2.68849 2.504094,6.19168 1.773912,9.39101 -1.048025,4.58431 -4.681753,8.0919 -8.590372,10.56901 -5.429115,3.44153 -11.725858,5.43644 -18.104209,5.73149 -6.769213,0.31487 -14.26646,-1.73949 -17.949582,-7.57226 -2.416043,-3.82906 -2.785429,-8.60714 -3.056025,-13.16062 -0.818233,-13.74412 -1.378755,-27.503654 -1.939277,-41.260985 -0.0902,-2.212887 -0.17825,-4.461004 0.33073,-6.61444"
     id="Fill-137"
     fill="#241352"
     style="fill-rule:evenodd;stroke:none;stroke-width:1" />
  <path
     d="m 69,133.70056 62.18239,22.48387 -5.9368,-24.21993 L 141.41666,128 c 0,0 17.39452,47.34688 5.31407,48.6139 -21.14848,2.21995 -53.147354,-5.85761 -53.147354,-5.85761 z"
     id="Fill-139"
     fill="#ffafa7"
     style="fill-rule:evenodd;stroke:none;stroke-width:1" />
  <path
     d="m 65,237.9108 c 0,0 73.99743,-81.08533 123.95258,-63.38334 C 238.90773,192.23162 260,274.81842 260,274.81842 l -39.78942,-0.64846 c 0,0 -31.42273,-62.37584 -46.75587,-59.96045 C 158.11941,216.62925 110.76314,276 110.76314,276 Z"
     id="Fill-141"
     fill="#5f2d90"
     style="fill-rule:evenodd;stroke:none;stroke-width:1;fill:#144e6f;fill-opacity:1" />
  <path
     d="M 87.904287,189.37583 91,236.58657 C 74.922827,256.12472 18.953118,230.86418 18.953118,230.86418 L 18.299894,211.1252 17,164.11097 c 1.28897,-18.72191 18.882322,-27.91011 18.882322,-27.91011 7.27285,-3.58459 18.364549,-5.61874 28.357345,-5.12855 10.43192,0.50745 13.009861,5.44598 17.307156,14.85444 3.471481,7.60105 12.894072,19.98515 6.357464,43.44908"
     id="Fill-143"
     fill="#fbc580"
     style="fill-rule:evenodd;stroke:none;stroke-width:1;fill:#ff8a48;fill-opacity:1" />
  <path
     d="m 30.337664,239.11402 c 0,0 -8.521638,35.82302 17.452176,41.47006 25.973815,5.6448 121.50403,-7.56309 146.386,-5.30337 24.88196,2.25522 95.64332,6.52083 95.64332,6.52083 L 295,239.26003 c 0,0 -110.11792,-5.45163 -122.56326,-2.25523 -12.44533,3.19191 -142.099076,2.10922 -142.099076,2.10922"
     id="Fill-145"
     fill="#6f35a5"
     style="fill-rule:evenodd;stroke:none;stroke-width:1;fill:#144e6f;fill-opacity:1" />
  <path
     d="m 41.753948,179 c 0,0 -7.837761,46.19608 3.215211,45.05776 36.356614,-3.73894 58.005121,-4.24243 58.005121,-4.24243 L 109,232.32809 c 0.13986,2.13216 -68.850375,21.8842 -79.936176,15.35418 -7.826817,-4.61019 -20.2958821,-17.03101 -14.635885,-54.14899 l 1.3373,-12.44271 z"
     id="Fill-147"
     fill="#ffafa7"
     style="fill-rule:evenodd;stroke:none;stroke-width:1" />
  <polygon
     id="Fill-149"
     fill="#9c8bbf"
     points="75.074213,245 75,241.8518 120.50803,235.30176 132.58734,192.24593 183,191 169.39714,237.60228 "
     style="fill-rule:evenodd;stroke:none;stroke-width:1;fill:#8baebf;fill-opacity:1" />
  <path
     d="m 156.99879,214.90178 c 0.0538,2.20758 -1.69355,4.04333 -3.90172,4.09711 -2.20816,0.0515 -4.04206,-1.69543 -4.09586,-3.90301 -0.0538,-2.20524 1.69355,-4.04098 3.90171,-4.09477 2.20817,-0.0515 4.04207,1.6931 4.09587,3.90067"
     id="Fill-151"
     fill="#ffffff"
     style="fill-rule:evenodd;stroke:none;stroke-width:1" />
  <path
     d="m 157.99836,213.36561 c 0.0735,3.03691 -2.32888,5.55924 -5.36515,5.63275 -3.03627,0.0735 -5.55807,-2.32937 -5.63157,-5.36627 -0.0735,-3.0369 2.32888,-5.55923 5.36515,-5.63045 3.03627,-0.0735 5.55807,2.32937 5.63157,5.36397"
     id="Fill-153"
     fill="#ffffff"
     style="fill-rule:evenodd;stroke:none;stroke-width:1" />
  <path
     d="m 22.296964,148.41325 c 0,0 -8.416101,8.0651 -10.296964,38.58675 l 32.569767,-3.59678 c 0,0 5.427571,-51.98306 -22.272803,-34.98997"
     id="Fill-155"
     fill="#fbc580"
     style="fill-rule:evenodd;stroke:none;stroke-width:1;fill:#ff8a48;fill-opacity:1" />
  <path
     d="m 262,57.572749 c 0,0 11.59328,26.778074 14.82526,25.373896 C 280.05943,81.544711 310,62.438023 310,62.438023 c 0,0 -12.27151,-23.974205 -14.82526,-25.373897 C 292.62099,35.666677 262,57.572749 262,57.572749"
     id="Fill-157"
     fill="#e4b1ed"
     style="fill-rule:evenodd;stroke:none;stroke-width:1" />
  <path
     d="m 294.98392,39.000799 c 0.14527,0.05117 -0.70252,2.55865 -2.19212,6.566521 -1.48743,4.009918 -3.61884,9.522276 -6.0343,15.587302 -0.0607,0.149425 -0.12142,0.29885 -0.17563,0.438041 L 286.41925,62 285.96175,61.93041 C 279.29431,60.904902 273.29254,59.92238 268.96251,59.160926 264.63247,58.399471 261.97417,57.859084 262,57.7158 c 0.024,-0.143285 2.7257,0.137144 7.08827,0.708235 4.36256,0.573137 10.38601,1.434891 17.05561,2.454257 l -0.61796,0.339789 c 0.0542,-0.13919 0.11275,-0.288616 0.17347,-0.438041 2.41762,-6.065026 4.66611,-11.536445 6.34652,-15.476767 1.68041,-3.94237 2.79274,-6.353642 2.93801,-6.302469"
     id="Fill-159"
     fill="#002c68"
     style="fill-rule:evenodd;stroke:none;stroke-width:1" />
  <path
     d="m 273.06808,79.999219 c -0.34964,-0.06472 0.68179,-4.159087 2.3051,-9.140804 1.6258,-4.983805 3.21915,-8.948718 3.56129,-8.85685 0.34214,0.09187 -0.68928,4.186229 -2.3051,9.142892 -1.61582,4.954574 -3.21165,8.919486 -3.56129,8.854762"
     id="Fill-161"
     fill="#002c68"
     style="fill-rule:evenodd;stroke:none;stroke-width:1" />
  <path
     d="m 307.99957,56.933559 c -0.0493,0.197415 -4.34356,-0.05978 -9.59034,-0.576953 -5.24679,-0.514391 -9.45811,-1.092733 -9.4088,-1.290148 0.0516,-0.197415 4.34356,0.05978 9.59258,0.575562 5.24455,0.515781 9.45587,1.094124 9.40656,1.291539"
     id="Fill-163"
     fill="#002c68"
     style="fill-rule:evenodd;stroke:none;stroke-width:1" />
  <path
     d="m 39.526412,85.408171 0.728539,9.873739 c 0,0 -8.166507,1.133414 -5.836904,8.79114 2.327455,7.65773 7.912916,4.30609 7.912916,4.30609 0,0 1.396902,19.62375 20.951388,13.40213 C 78.843845,116.83004 77.891802,96.112639 75.916797,78.450819 75.151724,71.608355 68.854917,66.904575 62.27873,68.221368 l -11.755471,2.355204 c -6.793245,1.358772 -11.521222,7.735055 -10.996847,14.831599"
     id="Fill-165"
     fill="#ffafa7"
     style="fill-rule:evenodd;stroke:none;stroke-width:1" />
  <path
     d="m 40,102 5.34273,29.3819 c 1.202768,6.62121 7.530372,10.85554 13.881945,9.29351 5.885283,-1.44965 9.654827,-7.38087 8.598047,-13.5256 L 64.92257,110.3091 Z"
     id="Fill-167"
     fill="#ffafa7"
     style="fill-rule:evenodd;stroke:none;stroke-width:1" />
  <path
     d="m 62.020965,103.21157 c 0.05658,-0.0541 0.176198,0.25082 0.444536,0.2919 0.261872,0.0368 0.661147,-0.3265 0.758137,-1.0941 0.134169,-0.76111 0.05981,-1.76223 -0.02101,-2.921195 C 63.133114,98.24272 63.065221,97.010238 62.994095,95.721537 62.743538,90.372133 62.727373,86.019526 62.960149,86 c 0.232775,-0.0194 0.623967,4.300779 0.874524,9.650183 0.04849,1.293025 0.09537,2.525507 0.142252,3.773125 0.03395,1.143832 0.06628,2.274682 -0.182664,3.210942 -0.19398,0.97733 -0.94565,1.58276 -1.414434,1.29302 -0.449386,-0.30488 -0.389576,-0.72219 -0.358862,-0.7157"
     id="Fill-169"
     fill="#241352"
     style="fill-rule:evenodd;stroke:none;stroke-width:1" />
  <path
     d="m 67.993138,118.02993 c 0.08986,0.13573 -0.703562,1.26402 -2.343017,2.47996 -1.62192,1.21312 -4.155623,2.40927 -7.072888,2.48562 -2.917264,0.082 -5.490419,-0.97275 -7.149599,-2.09821 -1.676715,-1.12546 -2.50521,-2.2085 -2.421922,-2.34989 0.14685,-0.41003 4.035075,3.15015 9.547412,2.97483 5.512337,-0.12442 9.282206,-3.89386 9.440014,-3.49231"
     id="Fill-171"
     fill="#241352"
     style="fill-rule:evenodd;stroke:none;stroke-width:1" />
  <path
     d="m 63.976271,107.73731 c 0.107775,0.0852 -0.139475,0.75964 -0.991113,1.41108 -0.822052,0.64455 -2.335136,1.16939 -3.924297,0.62383 -1.582821,-0.56398 -2.531668,-1.95204 -2.854995,-2.99712 -0.342345,-1.0704 -0.183852,-1.7771 -0.05072,-1.7748 0.166946,-0.0161 0.297967,0.60772 0.754428,1.41339 0.441669,0.79878 1.291193,1.79321 2.48729,2.21907 1.200324,0.41435 2.42178,0.14732 3.210021,-0.22329 0.80092,-0.36601 1.242588,-0.78956 1.369383,-0.67216"
     id="Fill-173"
     fill="#241352"
     style="fill-rule:evenodd;stroke:none;stroke-width:1" />
  <path
     d="m 39.974056,104.73875 c 0.0016,0.15372 -0.359969,0.42335 -1.000455,0.13104 -0.30646,-0.14868 -0.711831,-0.57456 -0.88533,-1.31292 -0.08756,-0.36035 -0.126475,-0.80135 -0.03891,-1.26251 0.06972,-0.45107 0.346997,-0.93743 0.653457,-1.09367 0.418343,-0.2646 1.003698,-0.10836 1.274486,0.60732 l -0.716695,0.57959 c -0.468609,-1.84463 -0.695617,-3.258336 -0.520497,-3.379295 0.173499,-0.12096 0.695617,1.091155 1.259893,2.870255 l -0.716696,0.5796 c -0.01621,-0.0378 -0.134583,-0.11844 -0.280516,-0.0302 -0.157284,0.0731 -0.228629,0.3654 -0.17512,0.75096 0.05189,0.36791 0.209171,0.64259 0.400506,0.85175 0.387534,0.39816 0.755611,0.51408 0.745882,0.70812"
     id="Fill-175"
     fill="#241352"
     style="fill-rule:evenodd;stroke:none;stroke-width:1" />
  <path
     d="m 69.323267,89.996688 c -0.28,0.04461 -0.652,-0.366614 -0.832001,-0.917232 -0.178,-0.550618 -0.094,-1.031537 0.186001,-1.076144 0.28,-0.04461 0.652,0.366614 0.829999,0.917232 0.180001,0.550618 0.096,1.031537 -0.183999,1.076144"
     id="Fill-177"
     fill="#241352"
     style="fill-rule:evenodd;stroke:none;stroke-width:1" />
  <path
     d="m 51.397613,90.995114 c -0.278,0.05421 -0.68,-0.348885 -0.9,-0.897926 -0.22,-0.550431 -0.172,-1.038313 0.106,-1.092523 0.276,-0.05282 0.678,0.348885 0.898,0.899316 0.22,0.549041 0.174,1.036924 -0.104,1.091133"
     id="Fill-179"
     fill="#241352"
     style="fill-rule:evenodd;stroke:none;stroke-width:1" />
  <path
     d="m 53.991074,86.784775 c -0.09484,0.282001 -0.978598,0.272 -1.957196,0.526001 -0.98722,0.223999 -1.752423,0.635999 -1.983062,0.431999 -0.239261,-0.172 0.372902,-1.119999 1.698536,-1.44 1.321322,-0.325999 2.358119,0.222001 2.241722,0.482"
     id="Fill-181"
     fill="#241352"
     style="fill-rule:evenodd;stroke:none;stroke-width:1" />
  <path
     d="m 69.988636,82.173237 c -0.110672,0.272001 -0.971237,0.138001 -1.978729,0.242001 -1.009399,0.08 -1.835618,0.369999 -1.988269,0.122 -0.164099,-0.222001 0.618234,-1.044 1.902404,-1.158 1.28417,-0.122 2.188622,0.545999 2.064594,0.793999"
     id="Fill-183"
     fill="#241352"
     style="fill-rule:evenodd;stroke:none;stroke-width:1" />
  <path
     d="m 39.209531,95.47365 c 5.42544,-5.452899 7.018896,-14.537393 8.490601,-22.1992 5.023872,3.772543 11.933833,4.699712 17.726666,2.380688 1.817736,2.202302 3.953736,4.127113 6.314016,5.686343 0.672841,0.444865 1.467433,0.876516 2.232121,0.638667 0.909936,-0.281894 1.315776,-1.35882 1.531512,-2.314618 0.6942,-3.054593 0.719832,-6.325011 -0.313992,-9.278297 -1.033824,-2.948882 -3.201865,-5.543193 -6.040609,-6.675176 -3.03312,-1.211266 -6.446449,-0.684916 -9.597049,0.156364 -4.744057,1.268525 -9.317233,3.217562 -13.546514,5.772232 -4.152384,2.506219 -8.138161,5.825087 -9.900361,10.438909 C 34.345858,84.695586 34.354402,93.667763 38.598635,96"
     id="Fill-185"
     fill="#241352"
     style="fill-rule:evenodd;stroke:none;stroke-width:1" />
  <path
     d="m 58.596087,110.9384 c -1.50067,-0.41624 -1.991766,-2.43931 -1.265164,-3.8229 0.724777,-1.4022 1.692363,-2.23235 2.252832,-2.10213 0.553167,0.17207 1.173882,1.43242 1.387481,3.08808 0.222728,1.63939 -0.874478,3.23459 -2.375149,2.83695 z"
     id="Fill-187"
     fill-opacity="0.2"
     fill="#241352"
     style="fill-rule:evenodd;stroke:none;stroke-width:1" />
  <path
     d="m 51.117043,102.99214 c -2.392253,0.13116 -4.235174,-1.39904 -4.111131,-3.039697 0.120105,-1.654458 1.856703,-2.830296 3.878797,-2.945349 2.022093,-0.101246 3.843356,0.888207 4.091442,2.521955 0.248085,1.622241 -1.466855,3.338831 -3.859108,3.463091 z"
     id="Fill-189"
     fill-opacity="0.12"
     fill="#241352"
     style="fill-rule:evenodd;stroke:none;stroke-width:1" />
  <path
     d="m 72.147345,101.99214 c -2.441704,0.13117 -4.293496,-1.39919 -4.138256,-3.040004 0.153023,-1.652323 1.873969,-2.832883 3.841082,-2.945646 1.969331,-0.09665 3.796728,0.892899 4.111643,2.52221 0.317133,1.6155 -1.374983,3.33456 -3.814469,3.46344 z"
     id="Fill-191"
     fill-opacity="0.12"
     fill="#241352"
     style="fill-rule:evenodd;stroke:none;stroke-width:1" />
  <path
     d="m 40.18515,120 c -0.292001,-0.007 -0.454001,-3.13748 -0.638,-6.98234 -0.178001,-3.84704 -0.312001,-6.97795 -0.022,-7.01725 0.28,-0.0415 0.882001,3.06323 1.062001,6.9583 0.186,3.89508 -0.120001,7.05 -0.402,7.04129"
     id="Fill-193"
     fill="#6042dd"
     style="fill-rule:evenodd;stroke:none;stroke-width:1" />
  <path
     d="M 73.462918,132.20042 C 68.30177,130.10059 108,145.19276 108,145.19276 L 103.97225,173 88.8729,167.92772 Z"
     id="Fill-195"
     fill="#fbc580"
     style="fill-rule:evenodd;stroke:none;stroke-width:1;fill:#ff8a48;fill-opacity:1" />
  <path
     d="m 47.75007,69.668462 c 1.158848,-2.158738 1.540586,-4.928077 1.02446,-7.437791 -0.424586,-2.067388 -1.688606,-4.117949 -3.414217,-4.226127 -0.979665,-0.0625 -1.930114,0.526463 -2.650742,1.351015 -1.780145,2.033733 -2.237841,5.615604 -1.051727,8.226283 1.186114,2.610679 3.899181,3.997752 6.234404,3.187624"
     id="Fill-197"
     fill="#241352"
     style="fill-rule:evenodd;stroke:none;stroke-width:1" />
  <path
     d="m 293.39191,248.50262 c 0,0 13.06638,-19.09811 11.47344,-11.86811 C 303.2724,243.86451 290,276 290,276 Z"
     id="Fill-199"
     fill="#241352"
     style="fill-rule:evenodd;stroke:none;stroke-width:1" />
  <path
     d="m 99.351036,219.22933 c 0,0 17.892474,-5.73532 17.278374,-3.84829 -0.6141,1.88479 -3.65817,1.95451 -6.70225,4.99761 0,0 20.00109,0.22041 19.03923,1.90502 -0.96187,1.68237 -13.98118,2.10745 -14.06042,2.3931 -0.077,0.28789 14.2409,0.6455 13.91955,2.20191 -0.32356,1.55866 -13.62901,1.17855 -13.62901,1.17855 0,0 12.33478,1.3405 12.08166,3.01836 -0.25312,1.68011 -11.62383,0.47007 -11.62383,0.47007 0,0 9.51741,1.11108 9.26869,2.6315 -0.14968,0.92665 -27.865506,1.13582 -27.92303,1.81731 -0.03052,0.35762 2.351036,-16.76514 2.351036,-16.76514"
     id="Fill-201"
     fill="#ffafa7"
     style="fill-rule:evenodd;stroke:none;stroke-width:1" />
  <path
     d="m 126.47417,132 c 0,0 -11.23853,-14.57738 -9.2349,-14.56893 2.00363,0.006 3.0487,2.75069 6.93984,4.62885 0,0 -6.20897,-18.22807 -4.28959,-17.84568 1.92394,0.38239 6.50951,12.08233 6.81006,12.06965 0.29826,-0.0127 -3.95717,-13.12176 -2.3611,-13.28232 1.5938,-0.16056 5.50315,12.03374 5.50315,12.03374 0,0 -2.67758,-11.59219 -0.98816,-11.85205 1.6917,-0.25986 4.18258,10.41966 4.18258,10.41966 0,0 -1.99225,-8.96826 -0.45537,-9.18798 C 133.51646,104.28185 142,126.5282 142,126.5282 c -0.22313,0 -15.52583,5.4718 -15.52583,5.4718"
     id="Fill-203"
     fill="#ffafa7"
     style="fill-rule:evenodd;stroke:none;stroke-width:1" />
  <path
     d="m 27.523771,174.00013 c 0.103695,-0.0112 0.457026,0.72033 0.476229,2.17889 -0.0038,0.70691 -0.251557,1.73372 -1.023508,2.37352 -0.368694,0.31989 -0.917894,0.54807 -1.486296,0.40267 -0.562642,-0.13647 -0.987023,-0.58164 -1.292348,-0.96865 -0.618329,-0.84113 -1.019668,-1.33776 -1.65336,-1.425 -0.606808,-0.11186 -1.154087,0.12527 -1.505498,0.5011 -0.737387,0.78297 -0.714344,1.68897 -0.864125,1.68002 -0.09986,0.0716 -0.48199,-0.97088 0.34757,-2.246 0.405179,-0.60848 1.221297,-1.10511 2.125748,-1.0022 0.447425,0.0447 0.925575,0.23042 1.328833,0.58835 0.393657,0.34674 0.674018,0.76507 0.950538,1.10958 0.994705,1.57936 2.296653,0.038 2.367704,-1.0984 0.157463,-1.19906 0.06529,-2.08046 0.228513,-2.09388"
     id="Fill-205"
     fill="#fcf2fc"
     style="fill-rule:evenodd;stroke:none;stroke-width:1" />
  <path
     d="m 36.007767,165.11436 c -0.06927,-0.0996 0.316964,-0.8592 1.47567,-1.6628 0.568857,-0.37749 1.532345,-0.67392 2.483239,-0.22696 0.466001,0.20843 0.96139,0.65076 1.169201,1.31542 0.20991,0.65307 0.09446,1.33163 -0.04198,1.85502 -0.323262,1.08614 -0.49119,1.76933 -0.201514,2.47104 0.253991,0.68318 0.755677,1.11856 1.257363,1.27836 1.045354,0.3358 1.759049,-0.17601 1.836716,-0.0139 0.115451,0.0625 -0.503785,1.01667 -1.996248,0.84993 -0.717893,-0.088 -1.580625,-0.66002 -2.01304,-1.6489 -0.218307,-0.48634 -0.340055,-1.0792 -0.283379,-1.68596 0.05458,-0.59287 0.228802,-1.10699 0.346352,-1.57711 0.703199,-1.87355 -1.274156,-2.38536 -2.227149,-1.84576 -1.047453,0.48402 -1.702373,1.05373 -1.805229,0.89162"
     id="Fill-207"
     fill="#fcf2fc"
     style="fill-rule:evenodd;stroke:none;stroke-width:1" />
  <path
     d="m 36.007767,144.11511 c -0.06927,-0.10189 0.316965,-0.85908 1.473571,-1.66259 0.568857,-0.37744 1.534445,-0.67615 2.485339,-0.22692 0.466001,0.2084 0.96139,0.65067 1.167102,1.31525 0.212009,0.65299 0.09656,1.33145 -0.03988,1.85478 -0.323262,1.086 -0.49329,1.7691 -0.201514,2.4684 0.253991,0.68542 0.755677,1.12075 1.255264,1.28052 1.047453,0.33576 1.761148,-0.17598 1.838815,-0.0139 0.11545,0.0625 -0.503785,1.01654 -1.998347,0.84982 -0.717894,-0.0903 -1.578526,-0.66226 -2.010941,-1.6487 -0.218307,-0.48627 -0.340055,-1.07906 -0.285479,-1.68574 0.05458,-0.59279 0.230902,-1.10685 0.348452,-1.57691 0.7011,-1.87331 -1.274156,-2.38505 -2.227149,-1.84783 -1.049552,0.48627 -1.702373,1.0559 -1.80523,0.89381"
     id="Fill-209"
     fill="#fcf2fc"
     style="fill-rule:evenodd;stroke:none;stroke-width:1" />
  <path
     d="m 57.504936,171.99006 c -0.09907,0.0722 -0.92301,-0.23868 -1.875016,-1.27764 -0.449424,-0.51347 -0.855355,-1.40802 -0.485667,-2.3487 0.169138,-0.45931 0.579901,-0.96476 1.249205,-1.21146 0.657222,-0.25071 1.372434,-0.19054 1.930589,-0.10029 1.16222,0.22465 1.889514,0.33496 2.587812,0.006 0.686217,-0.29484 1.087316,-0.8063 1.205713,-1.29369 0.244042,-1.02292 -0.360023,-1.66274 -0.20055,-1.74899 0.05557,-0.11433 1.109062,0.40315 1.082483,1.83724 -0.01933,0.68997 -0.526744,1.55243 -1.51016,2.03982 -0.483252,0.2447 -1.0849,0.40516 -1.722792,0.39714 -0.623394,-0.006 -1.174301,-0.13439 -1.674466,-0.21061 -2.017575,-0.5275 -2.351019,1.39398 -1.696213,2.25845 0.608897,0.96275 1.266119,1.5424 1.109062,1.65271"
     id="Fill-211"
     fill="#fcf2fc"
     style="fill-rule:evenodd;stroke:none;stroke-width:1" />
  <path
     d="m 71.99419,193.183 c 0.06375,0.10306 -0.391293,0.80209 -1.655301,1.48992 -0.622112,0.32039 -1.648707,0.52876 -2.611552,0.0224 -0.472629,-0.23749 -0.958448,-0.70351 -1.129914,-1.36222 -0.173663,-0.64526 -0.0044,-1.29052 0.175862,-1.78342 0.411078,-1.02614 0.635302,-1.6714 0.3825,-2.36819 -0.219827,-0.68111 -0.712241,-1.14041 -1.224439,-1.33533 -1.068362,-0.40553 -1.84875,0.0336 -1.919095,-0.12771 -0.116509,-0.0717 0.597931,-0.94324 2.145517,-0.66318 0.743017,0.14115 1.602543,0.75952 1.985043,1.74758 0.193448,0.48618 0.28138,1.06647 0.180259,1.64899 -0.09892,0.56684 -0.31875,1.05079 -0.474828,1.4944 -0.863922,1.74982 1.165086,2.40404 2.198276,1.95595 1.127715,-0.38537 1.850948,-0.88275 1.947672,-0.7192"
     id="Fill-213"
     fill="#fcf2fc"
     style="fill-rule:evenodd;stroke:none;stroke-width:1" />
  <path
     d="m 88.99419,159.18355 c 0.06375,0.10307 -0.391293,0.80441 -1.655301,1.49006 -0.622112,0.31817 -1.648707,0.5288 -2.611552,0.0224 -0.472629,-0.23751 -0.958448,-0.70357 -1.129914,-1.36009 -0.173663,-0.64756 -0.0044,-1.29287 0.175862,-1.78582 0.411078,-1.024 0.635302,-1.66931 0.3825,-2.36841 -0.219827,-0.68116 -0.712241,-1.1405 -1.224439,-1.33544 -1.068362,-0.40557 -1.84875,0.0314 -1.919095,-0.12772 -0.116509,-0.0717 0.597931,-0.94333 2.145517,-0.66325 0.743017,0.14117 1.602543,0.7596 1.985043,1.74774 0.195647,0.48623 0.28138,1.06656 0.180259,1.64914 -0.09892,0.56689 -0.31875,1.05088 -0.474828,1.49454 -0.863922,1.75221 1.165086,2.40201 2.198276,1.95611 1.127715,-0.3854 1.850948,-0.88283 1.947672,-0.71926"
     id="Fill-215"
     fill="#fcf2fc"
     style="fill-rule:evenodd;stroke:none;stroke-width:1" />
  <path
     d="m 98.953362,155.02052 c 0.07725,-0.0908 0.929278,0.0971 2.059858,1.02181 0.53604,0.46024 1.1142,1.3216 0.96205,2.35397 -0.0632,0.50035 -0.34643,1.08937 -0.93162,1.45249 -0.57348,0.36312 -1.266344,0.4159 -1.818761,0.41168 -1.153991,-0.0464 -1.870261,-0.0443 -2.464812,0.40746 -0.589869,0.4159 -0.863737,1.00703 -0.8731,1.53272 -0.0117,1.0957 0.699884,1.6615 0.566462,1.7755 -0.02809,0.12878 -1.142287,-0.23856 -1.425518,-1.72695 -0.126401,-0.7178 0.170875,-1.69105 1.004182,-2.35185 0.407291,-0.33146 0.948005,-0.59325 1.5566,-0.68825 0.594551,-0.0908 1.146969,-0.0464 1.640867,-0.0486 2.03177,0.22379 1.94282,-1.81561 1.13292,-2.60731 -0.786488,-0.89936 -1.535529,-1.39338 -1.409128,-1.53271"
     id="Fill-217"
     fill="#fcf2fc"
     style="fill-rule:evenodd;stroke:none;stroke-width:1" />
  <path
     d="m 52.99419,211.18355 c 0.06375,0.10307 -0.391291,0.80217 -1.655295,1.49006 -0.62211,0.31817 -1.648701,0.5288 -2.611542,0.0224 -0.472627,-0.23975 -0.958444,-0.70357 -1.129909,-1.36233 -0.173663,-0.64532 -0.0044,-1.29063 0.173663,-1.78358 0.413274,-1.02624 0.637498,-1.67155 0.384697,-2.36841 -0.219827,-0.68116 -0.712239,-1.1405 -1.224435,-1.33544 -1.070556,-0.40557 -1.850941,0.0336 -1.919088,-0.12772 -0.116508,-0.0717 0.595731,-0.94333 2.145509,-0.66325 0.743015,0.14117 1.602537,0.7596 1.985036,1.74774 0.193447,0.48623 0.27918,1.06656 0.180258,1.64914 -0.09892,0.56689 -0.318749,1.05088 -0.474826,1.4923 -0.863919,1.75221 1.165082,2.40425 2.196069,1.95835 1.12991,-0.3854 1.85314,-0.88283 1.949863,-0.71926"
     id="Fill-219"
     fill="#fcf2fc"
     style="fill-rule:evenodd;stroke:none;stroke-width:1" />
  <path
     d="m 77.985447,177.99286 c -0.102735,0.0684 -0.835579,-0.34862 -1.588969,-1.5485 -0.353866,-0.59032 -0.611845,-1.58059 -0.139263,-2.53878 0.221451,-0.46627 0.675768,-0.9582 1.335556,-1.15069 0.650655,-0.19677 1.315009,-0.0577 1.826402,0.0962 1.059313,0.35932 1.725949,0.55181 2.426831,0.2759 0.682618,-0.23954 1.130086,-0.73789 1.305877,-1.24265 0.36528,-1.05658 -0.116433,-1.79661 0.04566,-1.87147 0.06849,-0.1155 0.986257,0.54112 0.769372,2.05755 -0.111867,0.72934 -0.703165,1.58914 -1.691705,2.00193 -0.486279,0.20961 -1.073011,0.31655 -1.671157,0.24169 -0.582166,-0.0727 -1.084426,-0.26735 -1.541027,-0.39996 -1.821835,-0.76997 -2.394869,1.22768 -1.894892,2.21368 0.44062,1.08225 0.979408,1.76453 0.817315,1.86505"
     id="Fill-221"
     fill="#fcf2fc"
     style="fill-rule:evenodd;stroke:none;stroke-width:1" />
  <path
     d="m 82.984173,194.99324 c -0.100446,0.0663 -0.835528,-0.34864 -1.588873,-1.55071 -0.351561,-0.5882 -0.611808,-1.58066 -0.136972,-2.53675 0.219155,-0.46842 0.673445,-0.95823 1.335476,-1.15074 0.650616,-0.19678 1.312646,-0.0599 1.824008,0.0962 1.059249,0.35934 1.728128,0.55184 2.426684,0.27592 0.682577,-0.24169 1.130018,-0.73792 1.305799,-1.2427 0.365258,-1.05877 -0.114144,-1.79669 0.04566,-1.87156 0.06849,-0.1155 0.986197,0.53901 0.771608,2.0555 -0.11186,0.72937 -0.705405,1.59135 -1.693885,2.00417 -0.483967,0.20961 -1.072946,0.31441 -1.671057,0.23955 -0.58213,-0.0727 -1.082077,-0.26522 -1.540933,-0.39784 -1.821726,-0.77 -2.394724,1.22774 -1.894777,2.21378 0.440593,1.08229 0.981631,1.76461 0.817265,1.86513"
     id="Fill-223"
     fill="#fcf2fc"
     style="fill-rule:evenodd;stroke:none;stroke-width:1" />
  <path
     d="m 47.191024,188.9991 c -0.112102,-0.0174 -0.334231,-0.90943 -0.05813,-2.49473 0.147394,-0.76532 0.618639,-1.80645 1.56113,-2.28353 0.454637,-0.24351 1.079504,-0.33544 1.650396,-0.0149 0.56674,0.30812 0.923807,0.91192 1.166696,1.41882 0.479549,1.08337 0.8034,1.73687 1.453179,2.01269 0.618639,0.2932 1.241431,0.18884 1.68984,-0.11679 0.936263,-0.64108 1.096113,-1.62754 1.253887,-1.57536 0.120406,-0.0497 0.309319,1.19022 -0.824161,2.33571 -0.550132,0.54417 -1.511306,0.85228 -2.445493,0.48205 -0.465018,-0.17394 -0.930035,-0.51187 -1.28295,-1.0138 -0.344611,-0.48702 -0.55636,-1.02125 -0.778489,-1.47348 -0.724514,-1.99032 -2.412278,-0.69077 -2.719521,0.51932 -0.408967,1.25482 -0.492005,2.2388 -0.666387,2.20401"
     id="Fill-225"
     fill="#fcf2fc"
     style="fill-rule:evenodd;stroke:none;stroke-width:1" />
  <path
     d="m 79.191958,210.9991 c -0.11211,-0.0174 -0.336332,-0.90943 -0.05813,-2.49473 0.145329,-0.76532 0.618685,-1.80645 1.561245,-2.28353 0.452595,-0.24351 1.079584,-0.33544 1.650518,-0.0149 0.566782,0.30812 0.921799,0.91192 1.166782,1.41882 0.479585,1.08337 0.80346,1.73687 1.453287,2.01269 0.616608,0.2932 1.241522,0.18884 1.689964,-0.11679 0.936332,-0.64108 1.096194,-1.62754 1.251903,-1.57536 0.120415,-0.0497 0.311419,1.19022 -0.824221,2.33571 -0.550173,0.54417 -1.511418,0.85228 -2.443598,0.48205 -0.465052,-0.17394 -0.930103,-0.51187 -1.283044,-1.0138 -0.344637,-0.48702 -0.556401,-1.02125 -0.778547,-1.47348 -0.724567,-1.99032 -2.414532,-0.69077 -2.719722,0.52181 -0.408996,1.25233 -0.492041,2.23631 -0.666436,2.20152"
     id="Fill-227"
     fill="#fcf2fc"
     style="fill-rule:evenodd;stroke:none;stroke-width:1" />
  <path
     d="m 79.191958,143.99922 c -0.11211,-0.0174 -0.336332,-0.91194 -0.05813,-2.49479 0.145329,-0.76534 0.618685,-1.80897 1.561245,-2.28358 0.452595,-0.24352 1.079584,-0.33546 1.650518,-0.0149 0.566782,0.30564 0.921799,0.91194 1.166782,1.41637 0.479585,1.08588 0.80346,1.73939 1.453287,2.01521 0.616608,0.29073 1.241522,0.18885 1.689964,-0.11678 0.936332,-0.6411 1.096194,-1.62758 1.251903,-1.5754 0.120415,-0.0522 0.311419,1.18776 -0.824221,2.33328 -0.550173,0.54666 -1.511418,0.8523 -2.443598,0.48454 -0.465052,-0.17642 -0.930103,-0.51436 -1.283044,-1.01382 -0.344637,-0.48951 -0.556401,-1.02376 -0.778547,-1.47352 -0.724567,-1.99285 -2.414532,-0.69327 -2.719722,0.51934 -0.408996,1.25485 -0.492041,2.23637 -0.666436,2.20406"
     id="Fill-229"
     fill="#fcf2fc"
     style="fill-rule:evenodd;stroke:none;stroke-width:1" />
  <path
     d="m 67.760717,218.96836 c -0.0711,0.0967 -1.015671,0.006 -2.371593,-0.76359 -0.64749,-0.38488 -1.396547,-1.15464 -1.38893,-2.16932 -0.0076,-0.4919 0.208213,-1.09289 0.784606,-1.50864 0.561158,-0.4137 1.300059,-0.54131 1.894227,-0.59893 1.249276,-0.0803 2.018647,-0.1626 2.592501,-0.6648 0.571315,-0.4672 0.776988,-1.06819 0.708431,-1.57656 -0.152351,-1.06202 -1.002976,-1.53129 -0.876017,-1.65684 0.01016,-0.12555 1.264511,0.10497 1.79266,1.51482 0.2463,0.6792 0.0711,1.65272 -0.726205,2.38543 -0.388494,0.3643 -0.929339,0.6792 -1.571751,0.83562 -0.627177,0.15437 -1.228963,0.17289 -1.757112,0.2264 -2.22178,0.008 -1.818051,1.97174 -0.827772,2.64682 0.980123,0.78417 1.861218,1.17934 1.746955,1.32959"
     id="Fill-231"
     fill="#fcf2fc"
     style="fill-rule:evenodd;stroke:none;stroke-width:1" />
  <path
     d="m 30.39038,153.00492 c 0.102871,-0.0617 0.761686,0.45282 1.361404,1.80442 0.277972,0.66322 0.424619,1.74039 -0.12257,2.71463 -0.256084,0.47569 -0.73761,0.95596 -1.387669,1.09546 -0.641305,0.14408 -1.260722,-0.0686 -1.733493,-0.28129 -0.976184,-0.48713 -1.593412,-0.75699 -2.287247,-0.53287 -0.676325,0.18982 -1.151284,0.67694 -1.37016,1.19609 -0.45526,1.08859 -0.07004,1.92334 -0.232008,1.98737 -0.07442,0.11664 -0.886445,-0.67465 -0.527489,-2.26638 0.179478,-0.76385 0.829537,-1.62147 1.814476,-1.96451 0.483715,-0.17381 1.05498,-0.23098 1.617489,-0.0915 0.547188,0.13264 1.006827,0.38879 1.431445,0.57632 1.661263,0.99483 2.407628,-1.07488 2.028974,-2.17262 -0.312992,-1.19609 -0.759497,-1.97366 -0.593152,-2.06514"
     id="Fill-233"
     fill="#fcf2fc"
     style="fill-rule:evenodd;stroke:none;stroke-width:1" />
  <path
     d="m 66.39038,148.00492 c 0.102871,-0.0617 0.761686,0.45282 1.361404,1.80442 0.277972,0.66321 0.424619,1.74266 -0.12257,2.71462 -0.256084,0.47569 -0.73761,0.95595 -1.387669,1.09545 -0.641305,0.14408 -1.260722,-0.0686 -1.733493,-0.28129 -0.976184,-0.48713 -1.593412,-0.75699 -2.287247,-0.53286 -0.676325,0.18981 -1.151284,0.67694 -1.37016,1.19608 -0.45526,1.08859 -0.07004,1.92333 -0.232008,1.98737 -0.07442,0.11663 -0.886445,-0.67237 -0.527489,-2.26638 0.179478,-0.76385 0.829537,-1.62146 1.814476,-1.96222 0.483715,-0.17609 1.054979,-0.23327 1.617489,-0.0938 0.547188,0.13264 1.006827,0.38878 1.431445,0.57631 1.661263,0.99483 2.407628,-1.07487 2.028974,-2.17261 -0.312992,-1.19608 -0.759497,-1.97365 -0.593152,-2.06513"
     id="Fill-235"
     fill="#fcf2fc"
     style="fill-rule:evenodd;stroke:none;stroke-width:1" />
  <path
     d="m 44.087975,187 c -0.07991,-0.009 -0.06659,-0.8423 0.02442,-2.33832 0.09101,-1.4983 0.259713,-3.66174 0.49279,-6.33143 0.463933,-5.3371 1.196458,-12.71052 2.055511,-20.82855 0.19534,-2.01588 0.29523,-3.97729 0.02442,-5.80702 -0.250835,-1.832 -0.945624,-3.47786 -1.955622,-4.81497 -2.037753,-2.6992 -4.930119,-4.10215 -7.38963,-4.70373 -2.492807,-0.61067 -4.617131,-0.58116 -6.064424,-0.5403 -1.453952,0.0522 -2.26195,0.14529 -2.275436,0.0545 -0.01315,-0.0704 0.770429,-0.31782 2.2377,-0.51306 1.462831,-0.18388 3.638211,-0.3496 6.281962,0.18389 2.603796,0.52667 5.760315,1.92281 8.048903,4.85129 1.138744,1.44381 1.951182,3.31441 2.237533,5.30532 0.308548,1.99091 0.201999,4.0522 0.0044,6.09987 -0.861272,8.143 -1.720325,15.48464 -2.392917,20.80358 -0.337405,2.65833 -0.630416,4.80816 -0.859052,6.28829 C 44.33215,186.19402 44.167887,187.009 44.087975,187"
     id="Fill-237"
     fill="#241352"
     style="fill-rule:evenodd;stroke:none;stroke-width:1" />
  <path
     d="m 47,185.04809 c 0.03318,0.16794 -7.549698,0.73048 -16.938973,1.25544 -9.389275,0.52731 -17.02763,0.81738 -17.061027,0.64827 -0.03318,-0.16677 7.549698,-0.73048 16.941192,-1.25544 C 39.326028,185.17023 46.966603,184.87898 47,185.04809"
     id="Fill-239"
     fill="#241352"
     style="fill-rule:evenodd;stroke:none;stroke-width:1" />
  <path
     d="m 89.703314,179.99937 c -0.358002,-0.0343 1.373388,-6.50403 -0.60295,-14.21148 -1.852817,-7.73963 -6.387508,-12.57904 -6.086033,-12.78282 0.08374,-0.0879 1.329423,0.9696 2.874483,3.11472 1.545061,2.13226 3.280638,5.43361 4.268807,9.39567 0.975607,3.96205 0.986075,7.71174 0.621793,10.33952 -0.360096,2.64065 -0.960953,4.18085 -1.0761,4.14439"
     id="Fill-241"
     fill="#241352"
     style="fill-rule:evenodd;stroke:none;stroke-width:1" />
  <path
     d="m 176.23263,180.24306 c 0.2767,-1.81192 0.22307,-3.53514 1.25263,-5.13165 2.04839,-3.18458 4.96761,-2.39266 7.7946,-0.99254 2.86989,1.42123 5.57033,2.2744 8.69117,0.94608 4.91613,-2.0949 7.09321,-9.25809 2.51812,-12.71931 -1.48427,-1.12137 -3.01145,0.72645 -2.79052,2.11179 0.31101,1.95129 1.27622,4.10532 -0.42255,5.78208 -2.27146,2.24483 -4.93758,0.36534 -7.20689,-0.6441 -2.44091,-1.08757 -5.03196,-1.32831 -7.55437,-0.32733 -4.3413,1.72322 -7.49646,7.51587 -4.04745,11.43324 0.4869,0.55329 1.64944,0.30198 1.76526,-0.45826"
     id="Fill-243"
     fill="#7e2e84"
     style="fill-rule:evenodd;stroke:none;stroke-width:1" />
  <path
     d="m 189.0092,95.558265 c 0.44885,3.038394 3.46136,9.449385 6.6388,10.334035 1.68475,0.46963 2.93735,-0.69243 4.24633,-1.63606 2.38412,-1.71906 4.73901,-3.47744 7.09808,-5.235823 0.85177,-0.633454 1.35699,-1.85449 0.72234,-2.876754 -2.08767,-3.361673 -4.17326,-6.723347 -6.26093,-10.082836 -0.55324,-0.88902 -1.8288,-1.437285 -2.74947,-0.753592 -2.6075,1.928757 -5.39872,3.717718 -7.77867,5.950097 -1.6263,1.529026 0.45094,4.13274 2.27765,3.088633 2.64926,-1.51592 5.0647,-3.58229 7.53024,-5.4062 -0.91858,-0.251197 -1.83507,-0.502395 -2.75155,-0.753592 2.08558,3.35949 4.17326,6.721163 6.25884,10.080653 0.24217,-0.958918 0.48225,-1.920021 0.72234,-2.878939 -1.41545,1.055029 -2.83506,2.103504 -4.24633,3.162901 -0.70772,0.53079 -3.60333,3.296142 -4.37159,3.114842 -0.91231,-0.21406 -2.38412,-2.964124 -2.96032,-3.682766 -1.00208,-1.245065 -1.93945,-2.422415 -3.23381,-3.344199 -0.62212,-0.445603 -1.23381,0.28833 -1.14195,0.9196"
     id="Fill-245"
     fill="#fbc580"
     style="fill-rule:evenodd;stroke:none;stroke-width:1" />
  <path
     d="m 159.43531,126.92697 c -3.51776,3.15492 -4.8568,8.06606 -1.50026,11.85447 3.15726,3.56888 9.27247,4.32573 13.21792,1.48233 9.52774,-6.86598 -0.40305,-19.53374 -10.68316,-16.91196 -1.90331,0.48505 -1.4286,3.01902 0.45232,3.11938 3.00499,0.15889 6.2227,0.26761 8.62311,2.2329 2.57954,2.11374 2.63552,5.6868 0.52173,8.11624 -5.60469,6.43319 -15.33843,-3.03993 -9.45161,-8.79154 0.74117,-0.72549 -0.40305,-1.79803 -1.18005,-1.10182"
     id="Fill-247"
     fill="#7cabff"
     style="fill-rule:evenodd;stroke:none;stroke-width:1" />
  <path
     d="m 237.02977,156.70022 c -1.13314,6.29438 -2.09903,12.60218 -3.00011,18.93906 -0.21533,1.52327 0.76519,2.5522 2.17848,2.33076 5.56327,-0.86565 11.10981,-1.66419 16.59991,-2.96154 1.05579,-0.25052 1.48438,-1.64181 0.98262,-2.58799 -3.11092,-5.8582 -7.07274,-14.02032 -12.92661,-17.21671 -1.48228,-0.80973 -3.58132,0.94169 -2.47326,2.64614 1.74153,2.68193 4.31932,4.69283 6.34727,7.14884 2.33528,2.82957 4.52839,5.87386 6.21138,9.2 0.47249,-0.88354 0.94707,-1.76708 1.41956,-2.64838 -5.74934,0.60617 -11.40878,1.71339 -17.10167,2.76693 0.74846,0.60841 1.49483,1.21682 2.2412,1.82747 0.68574,-6.37043 1.2983,-12.72968 1.74361,-19.12248 0.0962,-1.3488 -1.97986,-1.66642 -2.22238,-0.3221"
     id="Fill-249"
     fill="#ff7081"
     style="fill-rule:evenodd;stroke:none;stroke-width:1" />
  <path
     d="m 209.75262,145.1747 c 1.61486,-5.96444 2.92299,-12.38104 3.24544,-18.48827 0.0996,-1.90594 -3.65964,-2.38188 -4.09219,-0.45863 -1.36056,6.04665 -1.85078,12.50219 -1.90587,18.6397 -0.0104,1.27856 2.40134,1.60091 2.75262,0.3072"
     id="Fill-251"
     fill="#ff957e"
     style="fill-rule:evenodd;stroke:none;stroke-width:1" />
  <path
     d="m 276.79156,144.3782 c 5.75549,1.088 11.82696,1.84656 17.63785,1.56141 2.13394,-0.10243 2.05392,-4.10839 0,-4.39631 -5.67136,-0.79731 -11.66281,-0.62567 -17.34648,-0.072 -1.14084,0.11074 -1.5943,2.66049 -0.29137,2.90688"
     id="Fill-253"
     fill="#fbc580"
     style="fill-rule:evenodd;stroke:none;stroke-width:1" />
  <path
     d="m 227.54158,67.977985 c 5.15155,2.651181 10.79727,5.234993 16.37863,6.948948 1.75871,0.540936 2.95264,-2.072598 1.27075,-2.877067 -5.24913,-2.51248 -11.16271,-4.450339 -16.7939,-6.007759 -1.19601,-0.328921 -1.97466,1.359275 -0.85548,1.935878"
     id="Fill-255"
     fill="#ff7081"
     style="fill-rule:evenodd;stroke:none;stroke-width:1" />
  <path
     d="m 244.88298,116.40265 c -0.11516,-0.1005 -0.23032,-0.20101 -0.34548,-0.30391 -1.50667,-1.33292 -3.9802,-1.59137 -5.44609,0 -1.48268,1.61051 -1.42749,3.82167 0,5.43457 0.10077,0.11247 0.20153,0.22733 0.3047,0.3422 1.34832,1.52197 4.12895,1.4765 5.48687,0 1.35073,-1.46693 1.62183,-4.03943 0,-5.47286"
     id="Fill-257"
     fill="#241352"
     style="fill-rule:evenodd;stroke:none;stroke-width:1" />
  <path
     d="M 109.61741,5.5925432 C 103.5318,7.691568 98.4963,12.873605 96.292743,19.206218 c -2.203556,6.334835 -1.551978,13.682533 1.663739,19.515378 6.188938,11.230338 22.079848,14.846436 32.119208,7.309938 10.03937,-7.536499 11.97934,-24.539711 3.92212,-34.368478 -8.05932,-9.8265455 -24.31082,-10.2796684 -32.85092,-0.912909"
     id="Fill-259"
     fill="#e2d3f5"
     style="fill-rule:evenodd;stroke:none;stroke-width:1;fill:#d3e4f5;fill-opacity:1" />
  <metadata
     id="metadata6524">
    <rdf:RDF>
      <cc:Work
         rdf:about="">
        <dc:title>Group 261</dc:title>
      </cc:Work>
    </rdf:RDF>
  </metadata>
</svg>
