<?xml version="1.0" encoding="UTF-8" standalone="no"?>
<svg
   width="283px"
   height="314px"
   viewBox="0 0 283 314"
   version="1.1"
   id="svg6816"
   sodipodi:docname="signup_new.svg"
   inkscape:version="1.1 (c68e22c387, 2021-05-23)"
   xmlns:inkscape="http://www.inkscape.org/namespaces/inkscape"
   xmlns:sodipodi="http://sodipodi.sourceforge.net/DTD/sodipodi-0.dtd"
   xmlns:xlink="http://www.w3.org/1999/xlink"
   xmlns="http://www.w3.org/2000/svg"
   xmlns:svg="http://www.w3.org/2000/svg"
   xmlns:rdf="http://www.w3.org/1999/02/22-rdf-syntax-ns#"
   xmlns:cc="http://creativecommons.org/ns#"
   xmlns:dc="http://purl.org/dc/elements/1.1/">
  <sodipodi:namedview
     id="namedview6818"
     pagecolor="#ffffff"
     bordercolor="#666666"
     borderopacity="1.0"
     inkscape:pageshadow="2"
     inkscape:pageopacity="0.0"
     inkscape:pagecheckerboard="0"
     showgrid="false"
     inkscape:zoom="2.6496815"
     inkscape:cx="70.008413"
     inkscape:cy="153.79207"
     inkscape:window-width="1920"
     inkscape:window-height="1017"
     inkscape:window-x="-8"
     inkscape:window-y="-8"
     inkscape:window-maximized="1"
     inkscape:current-layer="svg6816" />
  <!-- Generator: Sketch 64 (93537) - https://sketch.com -->
  <title
     id="title6742">Group 109</title>
  <desc
     id="desc6744">Created with Sketch.</desc>
  <defs
     id="defs6748">
    <polygon
       id="path-1"
       points="0 0.9349 282.978906 0.9349 282.978906 32 0 32" />
    <polygon
       id="path-3"
       points="0.761479052 0.008 2.76147905 0.008 2.76147905 19.8924167 0.761479052 19.8924167" />
    <mask
       id="mask-4"
       fill="#ffffff">
      <use
         xlink:href="#path-3"
         id="use6795"
         x="0"
         y="0"
         width="100%"
         height="100%" />
    </mask>
    <mask
       id="mask-2"
       fill="#ffffff">
      <use
         xlink:href="#path-1"
         id="use6780"
         x="0"
         y="0"
         width="100%"
         height="100%" />
    </mask>
  </defs>
  <path
     d="m 107.25555,140.92706 c -3.33472,3.15499 -4.60114,8.06623 -1.42341,11.85473 2.99318,3.56896 8.7865,4.32582 12.52426,1.48027 9.02409,-6.86403 -0.38183,-19.53208 -10.1208,-16.91024 -1.80525,0.48506 -1.35341,3.01909 0.42638,3.11945 2.84893,0.1589 5.89514,0.26762 8.17132,2.23295 2.44376,2.11378 2.49679,5.68693 0.49214,8.11642 -5.30753,6.43333 -14.5289,-3.04 -8.95408,-8.79174 0.70428,-0.7255 -0.37972,-1.79807 -1.11581,-1.10184"
     id="Fill-1"
     fill="#7cabff"
     style="fill-rule:evenodd;stroke:none;stroke-width:1" />
  <path
     d="m 201.02839,152.31472 c 1.19135,4.55906 2.50039,9.06911 3.86105,13.57702 0.32829,1.08489 1.32349,1.42378 2.22578,0.79075 3.54927,-2.48947 7.10267,-4.93632 10.46406,-7.69222 0.64626,-0.53072 0.50586,-1.59856 -0.13421,-2.05254 -3.93744,-2.79001 -9.25619,-6.90787 -14.25284,-6.93773 -1.26981,-0.006 -2.15971,1.83942 -0.87132,2.60672 2.01931,1.19998 4.43298,1.62839 6.5865,2.55342 2.488,1.0657 4.94916,2.31683 7.1419,3.9367 0.0516,-0.74813 0.0991,-1.49838 0.14866,-2.2465 -3.75987,2.39143 -7.29676,5.06847 -10.87287,7.73698 0.70407,0.14494 1.40814,0.29201 2.11222,0.43694 -1.52584,-4.45249 -3.09091,-8.87515 -4.78192,-13.26371 -0.3572,-0.92502 -1.88097,-0.41775 -1.62701,0.55417"
     id="Fill-3"
     fill="#ff7081"
     style="fill-rule:evenodd;stroke:none;stroke-width:1" />
  <path
     d="m 226.41245,174.89036 c 5.41732,-2.54727 10.9618,-5.47537 15.8429,-8.91335 1.79094,-1.26323 0.0254,-3.72725 -1.863,-2.75537 -5.21809,2.68253 -10.30477,6.14964 -14.95908,9.68543 -0.93256,0.70965 -0.24586,2.55975 0.97918,1.98329"
     id="Fill-5"
     fill="#fbc580"
     style="fill-rule:evenodd;stroke:none;stroke-width:1" />
  <path
     d="m 25.977396,192.90982 c -1.129592,-5.63572 -2.599755,-11.48617 -4.742597,-16.84841 -0.786907,-1.97108 -3.659542,-0.94806 -3.181474,1.03923 1.313627,5.48784 3.431085,11.04658 5.726231,16.22447 0.461144,1.03922 2.453797,0.86096 2.19784,-0.41529"
     id="Fill-7"
     fill="#ff957e"
     style="fill-rule:evenodd;stroke:none;stroke-width:1" />
  <path
     d="m 43.881895,139.40188 -0.343033,-0.30181 c -1.507915,-1.33315 -3.98061,-1.59456 -5.448028,0 -1.481711,1.6112 -1.426921,3.82363 0,5.43482 0.102433,0.11407 0.202485,0.22576 0.302536,0.3422 1.350692,1.51852 4.130687,1.47575 5.488525,0 1.350692,-1.46861 1.624642,-4.04225 0,-5.47521"
     id="Fill-9"
     fill="#241352"
     style="fill-rule:evenodd;stroke:none;stroke-width:1" />
  <path
     d="m 187.00196,293.18956 c 0,0 -57.07688,13.23109 -80.00196,-9.61683 l 8.20331,-54.57161 c 2.49223,-15.68717 1.00709,-45.86734 13.06029,-56.57459 2.33288,-2.07284 4.57864,-3.10398 4.57864,-3.10398 8.45615,-4.06947 23.49875,-6.26724 37.94431,-6.32255 17.54757,-0.0675 35.60719,13.15512 40.21345,30.02798 l -18.99234,44.27089 z"
     id="Fill-11"
     fill="#ff7081"
     style="fill-rule:evenodd;stroke:none;stroke-width:1" />
  <path
     d="m 182.33544,199.78301 c 0,0 25.59982,48.96609 12.89033,51.57282 -41.82177,8.57857 -66.09405,15.61296 -66.09405,15.61296 L 127,283.09296 c 0.62335,2.43774 84.60727,0.33165 94.55531,-10.87267 7.02278,-7.91105 16.36023,-26.192 -3.50394,-65.7599 L 212.01575,193 Z"
     id="Fill-13"
     fill="#ffafa7"
     style="fill-rule:evenodd;stroke:none;stroke-width:1" />
  <path
     d="M 135,172.90653 71.165913,197.34934 69.168236,164.22811 55.501825,159 c 0,0 -19.817041,53.16373 4.966506,63.06176 24.783548,9.90014 52.708429,-8.39194 52.708429,-8.39194 z"
     id="Fill-15"
     fill="#ffafa7"
     style="fill-rule:evenodd;stroke:none;stroke-width:1" />
  <path
     d="m 142,166 c -21.9699,7.05234 -35.07162,15.31709 -66,28.31514 L 91.882083,230 119.25521,221.14491 Z"
     id="Fill-17"
     fill="#ff7081"
     style="fill-rule:evenodd;stroke:none;stroke-width:1" />
  <polyline
     id="Fill-19"
     fill="#ff7081"
     points="179.006342 192.406732 194.977564 230 231 223.336851 206.732231 181 178 192.406732"
     style="fill-rule:evenodd;stroke:none;stroke-width:1" />
  <path
     d="m 159.43472,217.73371 c 7.72522,-0.406 15.35526,-0.09 23.07414,0.006 0.67479,0.01 0.6346,-0.892 0,-0.964 -7.60677,-0.86 -15.46103,-0.516 -23.07414,0.102 -0.57326,0.048 -0.58595,0.888 0,0.856"
     id="Fill-21"
     fill="#002c68"
     style="fill-rule:evenodd;stroke:none;stroke-width:1" />
  <path
     d="m 193.68446,174.00135 c -25.97102,2.36672 -8.20725,41.01407 -1.55136,52.71386 0.36837,0.65223 1.36402,0.068 0.99775,-0.58849 -6.61589,-11.82089 -24.31862,-47.78708 0.63781,-51.48589 0.35784,-0.0531 0.27785,-0.67348 -0.0842,-0.63948"
     id="Fill-23"
     fill="#002c68"
     style="fill-rule:evenodd;stroke:none;stroke-width:1" />
  <path
     d="m 121.32631,196.24352 c -3.29614,12.79421 -5.50948,26.09952 -6.32538,39.27388 -0.0347,0.54488 0.91138,0.68216 0.99166,0.13094 1.91606,-13.09833 3.84297,-26.16076 6.00206,-39.22741 0.0694,-0.41606 -0.55768,-0.60825 -0.66834,-0.17741"
     id="Fill-25"
     fill="#002c68"
     style="fill-rule:evenodd;stroke:none;stroke-width:1" />
  <path
     d="m 183.29663,125 c 0.40166,-5.55024 0.8076,-11.10047 1.20926,-16.65071 4.37557,-1.22936 6.65095,-6.80942 4.90328,-10.993938 -1.74552,-4.184516 -6.70222,-6.534577 -11.20384,-5.893264 2.83942,-1.928201 2.62363,-6.532446 0.2927,-9.048695 -2.33093,-2.516249 -5.98222,-3.332272 -9.41559,-3.46437 -3.43337,-0.132098 -6.90733,0.283371 -10.28515,-0.340897 -2.99111,-0.556089 -5.9224,-1.921809 -8.94128,-1.542561 -3.01889,0.381379 -5.90531,3.769047 -4.27729,6.332169 -4.3542,-0.637052 -9.0652,-1.216577 -12.93442,0.877811 -3.86921,2.094388 -5.8113,8.053701 -2.48689,10.930023 -2.19633,1.116439 -2.74541,4.286784 -1.51051,6.415262 1.2349,2.12635 3.76452,3.24492 6.22151,3.42176 2.45912,0.17471 4.89901,-0.4453 7.28549,-1.06105"
     id="Fill-27"
     fill="#241352"
     style="fill-rule:evenodd;stroke:none;stroke-width:1" />
  <path
     d="M 182.44466,114.25699 181.58,125.74742 c 0,0 9.6838,1.31774 6.92571,10.22786 -2.76229,8.91012 -9.38716,5.01208 -9.38716,5.01208 0,0 -1.65779,22.83444 -24.84799,15.5943 -18.45665,-5.76325 -17.32902,-29.86875 -14.98538,-50.41996 0.90884,-7.961606 8.37523,-13.43627 16.17402,-11.904213 l 13.94189,2.739454 c 8.05967,1.582985 13.6663,9.003489 13.04357,17.260049"
     id="Fill-29"
     fill="#ffafa7"
     style="fill-rule:evenodd;stroke:none;stroke-width:1" />
  <path
     d="m 181,136 -6.29533,33.15026 c -1.42016,7.46765 -8.87493,12.24586 -16.36149,10.4836 -6.93758,-1.6346 -11.38034,-8.32577 -10.13399,-15.25971 l 3.41686,-18.99982 z"
     id="Fill-31"
     fill="#ffafa7"
     style="fill-rule:evenodd;stroke:none;stroke-width:1" />
  <path
     d="m 154.97816,136.08923 c 0.0373,-0.0131 0.10577,0.48546 -0.56826,0.83097 -0.69892,0.32802 -1.82093,-0.38705 -2.1092,-1.56135 -0.37331,-1.13056 -0.31732,-2.49947 -0.25717,-3.90557 0.0747,-1.49575 0.15139,-3.01992 0.2302,-4.62064 0.39198,-6.55374 0.94572,-11.85009 1.24645,-11.83264 0.2945,0.0219 0.22191,5.34888 -0.16592,11.90481 -0.11199,1.59634 -0.21569,3.1227 -0.31939,4.61626 -0.11821,1.41922 -0.22813,2.65693 -0.002,3.61036 0.16384,0.96218 0.83165,1.43452 1.26511,1.36235 0.44382,-0.0787 0.60559,-0.46578 0.68025,-0.40455"
     id="Fill-33"
     fill="#241352"
     style="fill-rule:evenodd;stroke:none;stroke-width:1" />
  <path
     d="m 147.00517,154.01512 c 0.10733,-0.12675 1.24205,0.56273 3.23767,1.34056 1.97809,0.78168 4.89156,1.58063 8.19057,1.64017 3.30339,0.0615 6.24972,-0.62803 8.26505,-1.33672 2.03066,-0.70293 3.19605,-1.35016 3.29682,-1.21956 0.0832,0.0941 -0.93538,0.96221 -2.96604,1.8668 -2.00876,0.90459 -5.10843,1.7554 -8.61993,1.6901 -3.5093,-0.0634 -6.56297,-1.02943 -8.53011,-2.007 -1.98466,-0.97949 -2.95947,-1.88408 -2.87403,-1.97435"
     id="Fill-35"
     fill="#241352"
     style="fill-rule:evenodd;stroke:none;stroke-width:1" />
  <path
     d="m 152.02054,140.79428 c 0.1338,-0.10276 0.66681,0.35289 1.68237,0.75037 0.99143,0.4033 2.55974,0.69996 4.1105,0.2637 1.54857,-0.44596 2.62775,-1.49492 3.16953,-2.33255 0.56152,-0.84731 0.69312,-1.49104 0.87079,-1.47553 0.1338,-0.002 0.3027,0.70965 -0.14038,1.77995 -0.41895,1.04315 -1.6034,2.42561 -3.54899,2.98984 -1.95654,0.54484 -3.82755,0.031 -4.85627,-0.60107 -1.06601,-0.63985 -1.39942,-1.30685 -1.28755,-1.37471"
     id="Fill-37"
     fill="#241352"
     style="fill-rule:evenodd;stroke:none;stroke-width:1" />
  <path
     d="m 182.00028,136.79351 c -0.0148,-0.16597 0.56546,-0.2479 1.20899,-0.64286 0.32072,-0.20378 0.59923,-0.49369 0.70051,-0.89915 0.10338,-0.41387 -0.0148,-0.79832 -0.33759,-0.90126 -0.26586,-0.10294 -0.51905,-0.0168 -0.57813,0.0798 l -0.93471,-0.48109 c 0.87563,-1.80041 1.65842,-3.04411 1.88841,-2.94327 0.22576,0.10084 -0.17091,1.5126 -0.92416,3.36764 l -0.9326,-0.48319 c 0.39245,-0.66387 1.2512,-0.81512 1.87153,-0.56303 0.45574,0.14916 0.85663,0.60294 0.96424,1.03151 0.12871,0.43698 0.0738,0.85924 -0.057,1.20798 -0.2553,0.71219 -0.86086,1.13025 -1.32715,1.28361 -0.9748,0.30672 -1.54659,0.0672 -1.54237,-0.0567"
     id="Fill-39"
     fill="#241352"
     style="fill-rule:evenodd;stroke:none;stroke-width:1" />
  <path
     d="m 164.00651,114.69755 c -0.0983,-0.25799 0.92907,-0.86399 2.22798,-0.47799 1.3007,0.378 1.92783,1.47 1.72951,1.64199 -0.19297,0.20401 -0.94516,-0.34999 -1.96713,-0.634 -1.01126,-0.31399 -1.91354,-0.24599 -1.99036,-0.53"
     id="Fill-41"
     fill="#241352"
     style="fill-rule:evenodd;stroke:none;stroke-width:1" />
  <path
     d="m 143.00992,110.17627 c -0.12823,-0.248 1.00023,-1 2.57849,-0.854 1.57826,0.134 2.56072,1.074 2.39303,1.294 -0.1598,0.25 -1.18764,-0.156 -2.48181,-0.256 -1.29417,-0.13 -2.37528,0.09 -2.48971,-0.184"
     id="Fill-43"
     fill="#241352"
     style="fill-rule:evenodd;stroke:none;stroke-width:1" />
  <path
     d="m 180.96825,126.37915 c -6.48338,-6.44484 -8.38815,-17.18194 -10.14754,-26.23479 -6.00297,4.45768 -14.26259,5.5533 -21.18423,2.8121 -2.17447,2.60371 -4.72611,4.87659 -7.54744,6.72196 -0.80279,0.52418 -1.75517,1.03547 -2.66752,0.75405 -1.08724,-0.33513 -1.57186,-1.60691 -1.83102,-2.73476 -0.82807,-3.61126 -0.85757,-7.47816 0.37716,-10.964819 1.23683,-3.488806 3.82429,-6.552252 7.21874,-7.89063 3.62411,-1.432903 7.70546,-0.809902 11.46865,0.184752 5.67006,1.499499 11.13573,3.802455 16.19264,6.820787 4.95999,2.962477 9.72612,6.88309 11.82896,12.33972 2.10493,5.45448 2.09651,16.05409 -2.97726,18.81248"
     id="Fill-45"
     fill="#241352"
     style="fill-rule:evenodd;stroke:none;stroke-width:1" />
  <path
     d="m 165.88232,122.99964 c -0.288,-0.0181 -0.466,-0.70561 -0.402,-1.53393 0.066,-0.82832 0.352,-1.48339 0.638,-1.46535 0.288,0.0181 0.468,0.70561 0.4,1.53393 -0.064,0.82651 -0.35,1.48339 -0.636,1.46535"
     id="Fill-47"
     fill="#241352"
     style="fill-rule:evenodd;stroke:none;stroke-width:1" />
  <path
     d="m 146.88105,120.99964 c -0.288,-0.0181 -0.466,-0.70561 -0.4,-1.53393 0.064,-0.82832 0.35,-1.48339 0.636,-1.46535 0.288,0.0181 0.468,0.70561 0.402,1.53393 -0.066,0.82651 -0.35,1.48339 -0.638,1.46535"
     id="Fill-49"
     fill="#241352"
     style="fill-rule:evenodd;stroke:none;stroke-width:1" />
  <path
     d="m 54,160.5308 c 0,0 2.826301,-17.46447 6.204696,-17.27647 3.378395,0.188 10.130939,0 10.130939,0 0,0 0.564835,-16.61208 2.441957,-13.96944 1.874999,2.64263 2.465316,24.99289 -4.771373,35.71511 z"
     id="Fill-51"
     fill="#ffafa7"
     style="fill-rule:evenodd;stroke:none;stroke-width:1" />
  <path
     d="m 129,267 c 0,0 -29.572099,5.26256 -28.99156,9.1652 0.57639,3.90053 2.65388,7.8348 2.65388,7.8348 L 129,283.36959 Z"
     id="Fill-53"
     fill="#ffafa7"
     style="fill-rule:evenodd;stroke:none;stroke-width:1" />
  <polygon
     id="Fill-55"
     fill="#6f35a5"
     points="162,284.6913 161.77065,280.51541 99.390279,276.71799 78.468698,221 10,224.74667 33.359459,285 "
     style="fill-rule:evenodd;stroke:none;stroke-width:1;fill:#2b6c8b;fill-opacity:1" />
  <path
     d="m 48.007584,251.27408 c 0.152706,2.75655 2.510227,4.86893 5.269383,4.71834 2.757065,-0.15267 4.869839,-2.50975 4.715042,-5.26839 -0.150614,-2.75655 -2.508135,-4.86893 -5.265199,-4.71625 -2.759157,0.15268 -4.869839,2.50976 -4.719226,5.2663"
     id="Fill-57"
     fill="#ffffff"
     style="fill-rule:evenodd;stroke:none;stroke-width:1" />
  <path
     d="m 46.010852,251.3848 c 0.213317,3.86055 3.515537,6.81766 7.374053,6.60435 3.860608,-0.21122 6.815666,-3.5134 6.604441,-7.37395 -0.211225,-3.86055 -3.513445,-6.81766 -7.374053,-6.60435 -3.860607,0.21122 -6.817757,3.5134 -6.604441,7.37395"
     id="Fill-59"
     fill="#ffffff"
     style="fill-rule:evenodd;stroke:none;stroke-width:1" />
  <path
     d="M -8.4801281e-4,4.1878333 267.32459,0.9349 282.97891,8.9494333 c 0,0 -205.216983,54.9071997 -282.97975801281,-4.7616"
     id="Fill-61"
     fill="#e2d3f5"
     mask="url(#mask-2)"
     transform="translate(0,282)"
     style="fill-rule:evenodd;stroke:none;stroke-width:1;fill:#adcad9;fill-opacity:1" />
  <path
     d="m 158.03223,25.057107 c 0,0 -13.57863,0.67526 -14.03223,15.071793 0,0 0.22784,7.872488 4.5276,10.795842 C 152.82737,53.848096 152.59952,57 152.59952,57 h 11.31483 c 0,0 -0.4515,-4.049479 1.3587,-6.299652 1.81021,-2.250173 6.33572,-6.972834 5.65847,-13.945668 -0.67935,-6.974911 -5.88631,-12.372832 -12.89929,-11.697573"
     id="Fill-64"
     fill="#ffbc7a"
     style="fill-rule:evenodd;stroke:none;stroke-width:1" />
  <path
     d="m 152.45753,60.672539 c 3.99705,-0.18 8.0414,0.246 12.01376,0.022 0.57189,-0.034 0.76732,-0.9 0.14195,-1.026 -3.86128,-0.776 -8.27387,-0.346 -12.15571,0.078 -0.59452,0.064 -0.62537,0.954 0,0.926"
     id="Fill-66"
     fill="#6f35a5"
     style="fill-rule:evenodd;stroke:none;stroke-width:1" />
  <path
     d="m 154.4859,64.688716 c 1.65546,-0.09 3.32162,-0.154 4.98136,-0.138 1.65118,0.016 3.34301,0.272 4.9835,0.16 0.60315,-0.042 0.78923,-0.87 0.14971,-1.026 -3.17617,-0.776 -7.03892,-0.328 -10.24718,0.094 -0.54968,0.074 -0.42135,0.94 0.13261,0.91"
     id="Fill-68"
     fill="#6f35a5"
     style="fill-rule:evenodd;stroke:none;stroke-width:1" />
  <path
     d="m 155.43548,66.271561 c 1.32301,0.094 2.68887,0.478 4.00603,0.45 0.65273,-0.016 0.77159,-0.96 0.15198,-1.16 -1.28014,-0.414 -2.83111,-0.27 -4.15801,-0.216 -0.58453,0.024 -0.57674,0.884 0,0.926"
     id="Fill-70"
     fill="#6f35a5"
     style="fill-rule:evenodd;stroke:none;stroke-width:1" />
  <path
     d="m 156.11089,56.351335 c 0.32646,-4.073927 -1.08604,-8.581477 -1.80208,-12.579256 -0.41135,0.169218 -0.82052,0.336321 -1.23186,0.505539 0.59416,0.945507 1.57791,3.67415 3.09053,3.57685 1.56267,-0.101531 2.14378,-2.811137 2.36142,-3.915286 h -1.34721 c 0.30252,1.25856 0.33952,4.293911 2.37231,4.00624 1.72155,-0.243251 2.88159,-2.726528 3.40828,-4.088734 -0.46358,-0.124798 -0.93151,-0.249597 -1.39944,-0.374395 -1.04033,3.985088 -1.53873,9.029905 -0.4984,13.044606 0.18717,0.723408 1.36679,0.579572 1.34503,-0.175564 -0.12841,-4.221993 -0.73563,-8.355147 0.55281,-12.494647 0.27859,-0.888395 -1.06645,-1.203564 -1.39944,-0.374395 -0.19153,0.46958 -1.30368,3.143228 -2.35707,2.798445 -0.26553,-0.08672 -0.61593,-2.470585 -0.67687,-2.701145 -0.15453,-0.623992 -1.22315,-0.672642 -1.34721,0 -0.15235,0.818593 -0.50275,3.048043 -1.4952,2.381746 -0.57458,-0.384971 -1.08169,-1.757754 -1.44515,-2.345787 -0.4157,-0.672642 -1.34503,-0.196716 -1.23186,0.505539 0.65075,3.99778 0.82922,8.65551 2.48113,12.395232 0.14364,0.321515 0.59851,0.118453 0.62028,-0.164988"
     id="Fill-72"
     fill="#6f35a5"
     style="fill-rule:evenodd;stroke:none;stroke-width:1" />
  <path
     d="m 115.62522,51.977304 c 6.34337,-1.716479 12.89107,-3.195751 19.08502,-5.272708 0.49438,-0.166232 0.31421,-0.805008 -0.22411,-0.691074 -6.45762,1.36347 -12.79659,3.395601 -19.13336,5.12889 -0.61962,0.169966 -0.35595,1.004859 0.27245,0.834892"
     id="Fill-74"
     fill="#ffbc7a"
     style="fill-rule:evenodd;stroke:none;stroke-width:1" />
  <path
     d="m 123.5438,33.692369 c 3.9407,-0.074 8.04181,0.134 11.95217,-0.328 0.65678,-0.078 0.68713,-0.918 0,-0.964 -3.92987,-0.274 -8.01363,0.134 -11.95217,0.252 -0.72181,0.022 -0.72832,1.054 0,1.04"
     id="Fill-76"
     fill="#ffbc7a"
     style="fill-rule:evenodd;stroke:none;stroke-width:1" />
  <path
     d="m 141.8104,27.044897 c -4.41439,-3.922964 -8.62814,-8.818419 -13.65744,-11.922907 -0.78752,-0.486246 -1.52109,0.594055 -0.94933,1.256316 3.85774,4.459814 9.26894,7.773322 13.80631,11.482867 0.55882,0.457642 1.35928,-0.32123 0.80046,-0.816276"
     id="Fill-78"
     fill="#ffbc7a"
     style="fill-rule:evenodd;stroke:none;stroke-width:1" />
  <path
     d="m 151.99863,21.70866 c 0.0422,-1.304347 -0.89891,-2.558615 -1.48763,-3.644432 -0.69633,-1.28386 -1.29771,-2.772591 -2.2557,-3.847027 -0.48532,-0.54177 -1.46441,0.01138 -1.21542,0.764853 0.46422,1.404506 1.4201,2.651944 2.17763,3.897106 0.63936,1.060778 1.25973,2.54268 2.36332,3.086727 0.19202,0.09561 0.40936,-0.01593 0.4178,-0.257227"
     id="Fill-80"
     fill="#ffbc7a"
     style="fill-rule:evenodd;stroke:none;stroke-width:1" />
  <path
     d="m 2.5324,19.293074 c 0.17,-6.094421 0.378,-12.5403161 -0.262,-18.60157926 -0.096,-0.89747369 -1.22,-0.92621053 -1.284,0 -0.42,6.08557896 0.028,12.51600026 0.422,18.60157926 0.05,0.791368 1.102,0.806842 1.124,0"
     id="Fill-82"
     fill="#ffbc7a"
     mask="url(#mask-4)"
     transform="translate(158)"
     style="fill-rule:evenodd;stroke:none;stroke-width:1" />
  <path
     d="m 166.94828,21.748904 c 1.41739,-2.159435 2.89401,-4.325226 3.97033,-6.692339 0.38192,-0.834953 -0.67602,-1.474943 -1.18865,-0.722637 -1.45824,2.138242 -2.5509,4.537143 -3.66806,6.878826 -0.29002,0.614559 0.51263,1.104087 0.88638,0.53615"
     id="Fill-85"
     fill="#ffbc7a"
     style="fill-rule:evenodd;stroke:none;stroke-width:1" />
  <path
     d="m 173.58788,25.959871 c 2.84531,-1.1927 5.52447,-2.743003 8.23063,-4.214757 2.67293,-1.451084 5.6657,-2.714064 7.99387,-4.681916 0.47353,-0.403079 -0.0312,-1.223706 -0.60645,-1.035602 -2.72485,0.884706 -5.19009,2.623113 -7.66988,4.036989 -2.80585,1.60198 -5.69477,3.121277 -8.32824,5.000245 -0.41122,0.293524 -0.17446,1.126553 0.38007,0.895041"
     id="Fill-87"
     fill="#ffbc7a"
     style="fill-rule:evenodd;stroke:none;stroke-width:1" />
  <path
     d="m 175.44539,34.66898 c 2.37477,0.752063 6.45685,0.197019 8.29999,-1.404558 0.64171,-0.557162 -0.0422,-1.374899 -0.80564,-1.252026 -1.26701,0.199138 -2.43566,0.805025 -3.69799,1.071955 -1.25531,0.264811 -2.54106,0.260574 -3.79636,0.493607 -0.64873,0.120754 -0.53632,0.919424 0,1.091022"
     id="Fill-89"
     fill="#ffbc7a"
     style="fill-rule:evenodd;stroke:none;stroke-width:1" />
  <path
     d="m 177.48425,45.172026 c 8.07912,1.80757 16.41617,3.873896 24.68042,4.821427 0.99845,0.113555 1.13365,-1.284473 0.23297,-1.524613 -7.91895,-2.10728 -16.42033,-3.200013 -24.55561,-4.458424 -0.8362,-0.128447 -1.2127,0.96987 -0.35778,1.16161"
     id="Fill-91"
     fill="#ffbc7a"
     style="fill-rule:evenodd;stroke:none;stroke-width:1" />
  <path
     d="m 60.228688,188.2423 c 0.276422,-1.8103 0.222852,-3.534 1.251399,-5.13096 2.050664,-3.18124 4.960594,-2.38065 7.778383,-0.98226 2.871359,1.42586 5.573436,2.27926 8.695504,0.94846 4.874882,-2.08069 7.161255,-9.32825 2.511367,-12.73763 -1.506392,-1.10477 -2.989213,0.71821 -2.787789,2.11449 0.280707,1.94972 1.262112,4.09379 -0.432847,5.77101 -2.264945,2.24123 -4.922024,0.35911 -7.182683,-0.64638 -2.442798,-1.08577 -5.037735,-1.32446 -7.557674,-0.32109 -4.337038,1.73004 -7.482677,7.52851 -4.037046,11.44275 0.484274,0.55344 1.643532,0.30418 1.761386,-0.45839"
     id="Fill-93"
     fill="#7e2e84"
     style="fill-rule:evenodd;stroke:none;stroke-width:1" />
  <path
     d="m 103.89009,243.67086 c 6.08542,0.35833 12.48331,0.50167 18.56012,0.0273 2.23247,-0.17576 1.95665,-2.58687 -0.20902,-2.65341 -5.98415,-0.186 -12.2549,0.22865 -18.18518,0.8583 -1.1895,0.12627 -1.54506,1.6859 -0.16592,1.76781"
     id="Fill-95"
     fill="#7e2e84"
     style="fill-rule:evenodd;stroke:none;stroke-width:1" />
  <path
     d="m 209.15412,87.41171 c -0.81046,1.582568 1.83944,42.46663 1.83944,42.46663 L 230.99187,128.20608 228.66022,139 238.43237,127.90494 258,125.6304 256.8119,86 Z"
     id="Fill-97"
     fill="#e2d3f5"
     style="fill-rule:evenodd;stroke:none;stroke-width:1;fill:#d3e9f5;fill-opacity:1" />
  <path
     d="M 220,105.41399 224.23471,120 l 5.92688,-1.14529 -0.57902,-2.93625 1.6815,-1.00134 3.17496,3.11197 10.0398,-1.93916 1.30118,-3.80422 -2.85661,-0.63297 3.68774,-1.2215 -0.80122,-4.0752 -3.18992,0.27733 4.38,-1.18339 -0.99565,-5.05748 -10.20218,1.97092 c 0,0 0.65807,-7.066494 -2.35452,-9.36342 l -2.30537,0.446683 c 0,0 0.77772,2.218599 0.70507,3.586169 -0.0705,1.367571 -2.07676,7.678298 -2.07676,7.678298 l -3.13223,1.45225 -0.74353,-2.05771 z"
     id="Fill-99"
     fill="#ffffff"
     style="fill-rule:evenodd;stroke:none;stroke-width:1" />
  <polygon
     id="Fill-101"
     fill="#e2d3f5"
     points="108.42762,80.031589 14,78 17.40648,118.68508 92.23194,118.68508 96.372942,133 100.74175,117.30155 115,116.47229 "
     style="fill-rule:evenodd;stroke:none;stroke-width:1;fill:#d3f3f5;fill-opacity:1" />
  <path
     d="m 23.597587,92.835991 c 25.623743,-0.975909 51.156487,-0.910474 76.716743,1.160994 0.91211,0.07291 0.91634,-1.200255 0,-1.26195 -25.530628,-1.714384 -51.145906,-2.366859 -76.716743,-0.994604 -0.791483,0.043 -0.802065,1.125473 0,1.09556"
     id="Fill-103"
     fill="#ffffff"
     style="fill-rule:evenodd;stroke:none;stroke-width:1" />
  <path
     d="m 25.597603,101.83603 c 25.622322,-0.97588 51.157875,-0.91045 76.716707,1.16095 0.91214,0.0729 0.91637,-1.20021 0,-1.26377 -25.529203,-1.71246 -51.145176,-2.364917 -76.716707,-0.99271 -0.791505,0.043 -0.802086,1.12544 0,1.09553"
     id="Fill-105"
     fill="#ffffff"
     style="fill-rule:evenodd;stroke:none;stroke-width:1" />
  <path
     d="m 25.601884,108.17877 c 17.30825,0.552 34.416404,-0.636 51.707625,0.818 0.917459,0.078 0.923845,-1.29 0,-1.35 -17.272062,-1.11 -34.414276,-0.4 -51.707625,-0.64 -0.804639,-0.012 -0.800382,1.146 0,1.172"
     id="Fill-107"
     fill="#ffffff"
     style="fill-rule:evenodd;stroke:none;stroke-width:1" />
  <metadata
     id="metadata9321">
    <rdf:RDF>
      <cc:Work
         rdf:about="">
        <dc:title>Group 109</dc:title>
      </cc:Work>
    </rdf:RDF>
  </metadata>
</svg>
